<svg width="500" height="500" xmlns="http://www.w3.org/2000/svg">

 <g>
  <title>background</title>
  <rect fill="none" id="canvas_background" height="602" width="802" y="-1" x="-1"/>
 </g>
 <g>
  <title>Layer 1</title>
  <ellipse id="svg_1" fill="#f5f5f5" ry="124.15" rx="224.23" cy="362.36" cx="249.86"/>
  <g id="svg_2" fill="#e6e6e6">
   <path id="svg_3" d="m451.69,343.15l-125,72.2a3.69,3.69 0 0 1 -3.36,0l-180.22,-104a1,1 0 0 1 0,-1.94l125,-72.2a3.69,3.69 0 0 1 3.36,0l180.22,104a1,1 0 0 1 0,1.94z"/>
   <ellipse id="svg_4" ry="43.35" rx="75.08" cy="412.39" cx="161.23"/>
   <ellipse id="svg_5" ry="34.12" rx="59.1" cy="362.13" cx="252.65"/>
   <ellipse id="svg_6" ry="21.42" rx="37.1" cy="407.87" cx="384.09"/>
  </g>
  <path id="svg_7" fill="#37474f" d="m329.42,286.36l0,111a2.48,2.48 0 0 1 -1.12,1.94l-2.38,1.37a2.46,2.46 0 0 1 -2.24,0l-2.38,-1.37a2.48,2.48 0 0 1 -1.12,-1.94l0,-111c0,-0.71 0.5,-1 1.12,-0.64l2.38,1.37a2.46,2.46 0 0 0 2.24,0l2.38,-1.37c0.62,-0.36 1.12,-0.07 1.12,0.64z"/>
  <path id="svg_8" fill="#455a64" d="m323.68,400.62l-2.38,-1.37a2.48,2.48 0 0 1 -1.12,-1.94l0,-110.95c0,-0.71 0.5,-1 1.12,-0.64l2.38,1.37a2.48,2.48 0 0 1 1.12,1.91l0,111c0,0.69 -0.5,1 -1.12,0.62z"/>
  <path id="svg_9" fill="#37474f" d="m430.93,227.72l0,110.94a2.45,2.45 0 0 1 -1.12,1.94l-2.38,1.4a2.52,2.52 0 0 1 -2.24,0l-2.38,-1.38a2.48,2.48 0 0 1 -1.12,-1.94l0,-110.96c0,-0.71 0.51,-1 1.12,-0.65l2.38,1.38a2.46,2.46 0 0 0 2.24,0l2.38,-1.38c0.62,-0.35 1.12,-0.07 1.12,0.65z"/>
  <path id="svg_10" fill="#455a64" d="m425.19,342l-2.38,-1.38a2.48,2.48 0 0 1 -1.12,-1.94l0,-110.96c0,-0.71 0.51,-1 1.12,-0.65l2.38,1.38a2.47,2.47 0 0 1 1.12,1.94l0,110.94c0,0.67 -0.5,1 -1.12,0.67z"/>
  <path id="svg_11" fill="#37474f" d="m192.71,207.47l0,111a2.48,2.48 0 0 1 -1.12,1.94l-2.38,1.37a2.46,2.46 0 0 1 -2.24,0l-2.38,-1.37a2.48,2.48 0 0 1 -1.12,-1.94l0,-111c0,-0.71 0.5,-1 1.12,-0.64l2.41,1.37a2.46,2.46 0 0 0 2.24,0l2.38,-1.37c0.59,-0.36 1.09,-0.07 1.09,0.64z"/>
  <path id="svg_12" fill="#455a64" d="m187,321.73l-2.38,-1.37a2.48,2.48 0 0 1 -1.12,-1.94l0,-111c0,-0.71 0.5,-1 1.12,-0.64l2.38,1.42a2.48,2.48 0 0 1 1.12,1.94l0,110.94c-0.03,0.72 -0.53,1.01 -1.12,0.65z"/>
  <path id="svg_13" fill="#407bff" d="m453,235.61l0,-0.81a4.49,4.49 0 0 0 -2,-3.53l-179,-103.27a4.51,4.51 0 0 0 -4.08,0l-110.12,63.6a4.49,4.49 0 0 0 -2,3.53l0,0.87a4.49,4.49 0 0 0 2,3.53l179,103.26a4.58,4.58 0 0 0 4.08,0l110.12,-63.65a4.49,4.49 0 0 0 2,-3.53z"/>
  <path id="svg_14" opacity="0.6" d="m453,235.61l0,-0.81a4.49,4.49 0 0 0 -2,-3.53l-179,-103.27a4.51,4.51 0 0 0 -4.08,0l-110.12,63.6a4.49,4.49 0 0 0 -2,3.53l0,0.87a4.49,4.49 0 0 0 2,3.53l179,103.26a4.58,4.58 0 0 0 4.08,0l110.12,-63.65a4.49,4.49 0 0 0 2,-3.53z"/>
  <path id="svg_15" fill="#407bff" d="m338.82,297.72l0,5.52a4.24,4.24 0 0 0 2,-0.49l110.18,-63.6a4.51,4.51 0 0 0 2,-3.53l0,-0.82a4.53,4.53 0 0 0 -1.66,-3.26c0.73,0.63 0.61,1.5 -0.38,2.09l-110.12,63.6a4.13,4.13 0 0 1 -2.02,0.49z"/>
  <path id="svg_16" opacity="0.5" d="m338.82,297.72l0,5.52a4.24,4.24 0 0 0 2,-0.49l110.18,-63.6a4.51,4.51 0 0 0 2,-3.53l0,-0.82a4.53,4.53 0 0 0 -1.66,-3.26c0.73,0.63 0.61,1.5 -0.38,2.09l-110.12,63.6a4.13,4.13 0 0 1 -2.02,0.49z"/>
  <path id="svg_17" fill="#407bff" d="m451,233.62l-110.14,63.61a4.51,4.51 0 0 1 -4.08,0l-179.01,-103.23a1.24,1.24 0 0 1 0,-2.35l110.12,-63.65a4.51,4.51 0 0 1 4.08,0l179.03,103.27a1.24,1.24 0 0 1 0,2.35z"/>
  <path id="svg_18" opacity="0.4" d="m451,233.62l-110.14,63.61a4.51,4.51 0 0 1 -4.08,0l-179.01,-103.23a1.24,1.24 0 0 1 0,-2.35l110.12,-63.65a4.51,4.51 0 0 1 4.08,0l179.03,103.27a1.24,1.24 0 0 1 0,2.35z"/>
  <g id="svg_19">
   <path id="svg_20" opacity="0.15" d="m325.29,232.24l-26.09,15.1a3.25,3.25 0 0 1 -2.93,0l-77.08,-44.44a0.89,0.89 0 0 1 0,-1.69l26.09,-15.11a3.26,3.26 0 0 1 2.92,0l77.09,44.45a0.89,0.89 0 0 1 0,1.69z"/>
   <path id="svg_21" fill="#263238" d="m220.77,198.53a1,1 0 0 1 0.61,-0.84l24.51,-14.15a3.2,3.2 0 0 1 2.92,0l74.8,43.25a1,1 0 0 1 0.6,0.85l0,2.57a1,1 0 0 1 -0.6,0.84l-24.5,14.15a3.22,3.22 0 0 1 -2.93,0l-74.8,-43.2a1,1 0 0 1 -0.61,-0.84l0,-2.63z"/>
   <path id="svg_22" fill="#37474f" d="m299.11,242.57l24.5,-14.09a0.89,0.89 0 0 0 0,-1.69l-74.8,-43.25a3.2,3.2 0 0 0 -2.92,0l-24.51,14.15a0.89,0.89 0 0 0 0,1.69l74.8,43.18a3.25,3.25 0 0 0 2.93,0.01z"/>
   <path id="svg_23" fill="#263238" d="m297.74,242.91l0,2.63a2.92,2.92 0 0 0 1.37,-0.34l24.49,-14.14a1,1 0 0 0 0.61,-0.85l0,-2.58a1,1 0 0 1 -0.61,0.85l-24.49,14.09a3,3 0 0 1 -1.37,0.34z"/>
   <path id="svg_24" fill="#407bff" d="m225.31,198.72l2.42,-1.4l3.29,1.9l-2.44,1.45l-3.29,-1.9l0.02,-0.05zm3.8,-2.19l2.43,-1.4l2.59,1.49l-2.44,1.38l-2.58,-1.49l0,0.02zm0.8,4.85l2.43,-1.4l2.58,1.49l-2.44,1.45l-2.58,-1.49l0.01,-0.05zm3,-7l2.43,-1.4l4.17,2.42l-2.44,1.44l-4.17,-2.41l0.01,-0.05zm0.09,4.44l2.42,-1.41l2.06,1.19l-2.43,1.4l-2.05,-1.21l0,0.03zm0.8,4.84l2.42,-1.4l2.59,1.49l-2.45,1.45l-2.58,-1.49l0.02,-0.05zm2.56,-2.9l2.42,-1.4l2,1.19l-2.44,1.45l-2,-1.19l0.02,-0.05zm0.34,-8.58l2.43,-1.4l3.29,1.9l-2.42,1.38l-3.29,-1.9l-0.01,0.02zm1,13.73l2.42,-1.4l18.68,10.78l-2.44,1.45l-18.68,-10.78l0.02,-0.05zm0.7,-8.37l2.42,-1.4l2,1.19l-2.44,1.44l-2.05,-1.18l0.07,-0.05zm1.33,5.16l2.42,-1.4l2.05,1.19l-2.44,1.45l-2.05,-1.19l0.02,-0.05zm0.77,-12.7l2.42,-1.4l2.06,1.19l-2.44,1.44l-2.03,-1.23l-0.01,0zm0.8,4.85l2.42,-1.4l2.06,1.18l-2.42,1.37l-2.06,-1.18l0,0.03zm0.45,4.64l2.42,-1.4l2.05,1.19l-2.44,1.44l-2.05,-1.18l0.02,-0.05zm1.33,5.16l2.42,-1.4l2,1.19l-2.44,1.45l-2,-1.19l0.02,-0.05zm0.78,-12.71l2.42,-1.4l2.06,1.19l-2.44,1.44l-2,-1.18l-0.04,-0.05zm0.8,4.85l2.42,-1.4l2.06,1.18l-2.44,1.45l-2.05,-1.18l0.01,-0.05zm0.45,4.64l2.42,-1.4l2,1.19l-2.44,1.44l-2,-1.18l0.02,-0.05zm0,-14.09l2.42,-1.4l2.59,1.49l-2.45,1.45l-2.58,-1.49l0.02,-0.05zm1.33,19.25l2.42,-1.4l2.05,1.19l-2.44,1.45l-2.05,-1.19l0.02,-0.05zm0.78,-12.71l2.42,-1.4l2.06,1.19l-2.42,1.33l-2.05,-1.18l-0.01,0.06zm0.8,4.85l2.42,-1.4l2.06,1.18l-2.44,1.45l-2.06,-1.26l0.02,0.03zm0.45,4.64l2.42,-1.4l2.05,1.19l-2.44,1.44l-2.05,-1.18l0.02,-0.05zm1.33,5.16l2.42,-1.4l2,1.19l-2.44,1.45l-2,-1.19l0.02,-0.05zm0.66,-18.1l2.43,-1.4l2.05,1.18l-2.44,1.45l-2.05,-1.18l0.01,-0.05zm0.12,5.39l2.42,-1.4l2.06,1.19l-2.43,1.39l-2,-1.18l-0.05,0zm0.8,4.85l2.42,-1.4l2.06,1.18l-2.44,1.45l-2.05,-1.18l0.01,-0.05zm0.45,4.64l2.42,-1.4l2,1.19l-2.44,1.44l-2,-1.18l0.02,-0.05zm1.33,5.16l2.44,-1.47l2,1.19l-2.44,1.45l-2.05,-1.19l0.05,0.02zm0.66,-18.1l2.42,-1.4l2.06,1.18l-2.44,1.45l-2,-1.18l-0.04,-0.05zm0.12,5.39l2.42,-1.4l2.06,1.19l-2.42,1.36l-2,-1.18l-0.06,0.03zm0.8,4.85l2.42,-1.4l2.06,1.18l-2.44,1.45l-2.05,-1.18l0.01,-0.05zm0.45,4.64l2.43,-1.4l2.05,1.19l-2.44,1.44l-2.05,-1.18l0.01,-0.05zm1.33,5.16l2.42,-1.41l2.05,1.19l-2.44,1.45l-2.05,-1.19l0.02,-0.04zm0.66,-18.1l2.43,-1.4l2.05,1.18l-2.44,1.45l-2.05,-1.18l0.01,-0.05zm0.12,5.39l2.43,-1.4l2.05,1.19l-2.45,1.44l-2,-1.18l-0.03,-0.05zm0.37,17.76l2.43,-1.4l2.58,1.49l-2.44,1.45l-2.58,-1.49l0.01,-0.05zm0.43,-12.91l2.42,-1.4l2.06,1.18l-2.44,1.45l-2.05,-1.18l0.01,-0.05zm0.45,4.64l2.43,-1.4l2.02,1.11l-2.44,1.44l-2.05,-1.18l0.04,0.03zm1.33,5.16l2.42,-1.4l2.06,1.19l-2.45,1.45l-2.05,-1.19l0.02,-0.05zm0.66,-18.1l2.43,-1.4l2.03,1.15l-2.44,1.45l-2.05,-1.18l0.03,-0.02zm0.12,5.39l2.43,-1.4l2.05,1.19l-2.44,1.44l-2.05,-1.18l0.01,-0.05zm0.8,4.85l2.43,-1.4l2,1.18l-2.44,1.45l-2,-1.18l0.01,-0.05zm0.1,13.21l2.43,-1.4l2.58,1.49l-2.44,1.45l-2.58,-1.49l0.01,-0.05zm0.35,-8.57l2.42,-1.4l2,1.19l-2.33,1.36l-2,-1.18l-0.09,0.03zm1.33,5.16l2.42,-1.4l2.06,1.19l-2.45,1.45l-2.05,-1.19l0.02,-0.05zm0.78,-12.71l2.43,-1.4l2,1.19l-2.44,1.44l-2.01,-1.26l0.02,0.03zm0.8,4.85l2.43,-1.4l2.05,1.18l-2.44,1.45l-2.05,-1.18l0.01,-0.05zm0.45,4.64l2.42,-1.4l2.05,1.19l-2.44,1.44l-2.03,-1.3l0,0.07zm0.1,-14l2.43,-1.4l2.05,1.19l-2.44,1.45l-2.04,-1.31l0,0.07zm0.08,22.91l2.43,-1.4l2.58,1.49l-2.46,1.34l-2.58,-1.49l0.03,0.06zm1.15,-3.72l2.42,-1.41l2.06,1.19l-2.45,1.45l-2,-1.19l-0.03,-0.04zm0.78,-12.71l2.42,-1.4l2.06,1.19l-2.44,1.44l-2.05,-1.18l0.01,-0.05zm0.8,4.85l2.43,-1.4l2.05,1.18l-2.44,1.45l-2.05,-1.18l0.01,-0.05zm0.45,4.64l2.42,-1.4l2.06,1.19l-2.45,1.44l-2.03,-1.27l0,0.04zm0.1,-14l2.43,-1.4l2.05,1.19l-2.44,1.45l-2,-1.19l-0.04,-0.05zm0.62,23.22l2.43,-1.41l3.29,1.9l-2.44,1.45l-3.29,-1.9l0.01,-0.04zm0.61,-4l2.42,-1.41l6.48,3.74l-2.44,1.45l-6.42,-3.91l-0.04,0.13zm0.78,-12.71l2.43,-1.4l2.05,1.19l-2.44,1.44l-2.05,-1.18l0.01,-0.05zm0.8,4.85l2.43,-1.4l2.03,1l-2.44,1.45l-2.05,-1.18l0.03,0.13zm0.45,4.64l2.42,-1.4l2.06,1.19l-2.47,1.27l-2,-1.18l-0.01,0.12zm0.1,-14l2.43,-1.4l2.05,1.19l-2.44,1.45l-2.05,-1.19l0.01,-0.05zm2,6.48l2.43,-1.4l2.05,1.19l-2.44,1.44l-2.05,-1.18l0.01,-0.05zm0.55,17.86l2.42,-1.4l2.06,1.18l-2.45,1.45l-2,-1.18l-0.03,-0.05zm0.25,-13l2.43,-1.4l2,1.18l-2.32,1.24l-2,-1.18l-0.11,0.16zm0.45,4.64l2.42,-1.4l1.88,1.08a1.2,1.2 0 0 0 0.59,0.13a1.33,1.33 0 0 0 0.62,-0.13l3.19,-1.84l2.4,1.39l-6.23,3.64l-4.89,-2.82l0.02,-0.05zm0.1,-14l2.43,-1.4l2.05,1.19l-2.42,1.19l-2.05,-1.19l-0.01,0.21zm2,6.48l2.42,-1.4l2.06,1.19l-2.44,1.44l-2,-1.18l-0.04,-0.05zm0.55,17.86l2.42,-1.4l2.06,1.18l-2.45,1.45l-2,-1.18l-0.03,-0.05zm0.25,-13l2.43,-1.4l2.05,1.18l-2.44,1.45l-2.05,-1.18l0.01,-0.05zm2,-8.55l2.42,-1.4l2.06,1.18l-2.45,1.45l-2.05,-1.18l0.02,-0.05zm0.55,5.64l2.42,-1.4l2.06,1.19l-2.44,1.44l-2.05,-1.18l0.01,-0.05zm0.55,17.86l2.43,-1.4l2.05,1.18l-2.45,1.45l-2,-1.18l-0.03,-0.05zm0.44,-4.13l2.42,-1.4l2.06,1.19l-2.45,1.45l-2,-1.42l-0.03,0.18zm1.82,-17.43l2.42,-1.4l2.05,1.18l-2.44,1.45l-2.05,-1.18l0.02,-0.05zm0.55,5.64l2.43,-1.4l3.64,2.1l-2.44,1.45l-3.64,-2.1l0.01,-0.05zm1.26,18.27l2.42,-1.4l5.42,3.12l-2.45,1.45l-5.41,-3.12l0.02,-0.05zm0.6,-12.81l2.43,-1.4l2.05,1.19l-2.44,1.44l-2.05,-1.18l0.01,-0.05zm0.95,-9.16l2.42,-1.4l2.05,1.18l-2.43,1.2l-2,-1.18l-0.04,0.2zm2.25,19.78l2.43,-1.4l2.05,1.19l-2.44,1.45l-2.05,-1.19l0.01,-0.05zm0.16,-8.68l2.43,-1.4l2,1.19l-2.44,1.44l-2,-1.18l0.01,-0.05zm0.44,-4.13l2.43,-1.4l2,1.18l-2.44,1.45l-2,-1.18l0.01,-0.05zm0.51,-5l2.42,-1.4l2,1.18l-2.44,1.45l-2,-1.18l0.02,-0.05zm1.81,23.91l2.42,-1.4l2.06,1.18l-2.45,1.45l-2,-1.18l-0.03,-0.05zm0.44,-4.13l2.43,-1.4l2,1.19l-2.44,1.45l-2,-1.19l0.01,-0.05zm0.16,-8.68l2.43,-1.4l2.05,1.19l-2.44,1.44l-2.05,-1.18l0.01,-0.05zm0.28,4.54l2.43,-1.4l2,1.19l-2.44,1.44l-2,-1.18l0.01,-0.05zm0.16,-8.67l2.43,-1.4l2.05,1.18l-2.44,1.45l-2.05,-1.18l0.01,-0.05zm1.25,-4.6l2.42,-1.4l2.06,1.18l-2.39,1.19l-2.05,-1.18l-0.04,0.21zm1.07,23.48l6.22,-3.6l2.05,1.19l-6.23,3.64l-2.06,-1.18l0.02,-0.05zm0.44,-4.13l2.43,-1.4l2.05,1.19l-2.41,1.16l-2,-1.19l-0.07,0.24zm0.44,-4.14l2.43,-1.4l2.05,1.19l-2.44,1.44l-2.01,-1.47l-0.03,0.24zm0.16,-8.67l2.43,-1.4l2.05,1.18l-2.44,1.45l-2.05,-1.18l0.01,-0.05zm0.27,4.54l2.43,-1.4l2.05,1.18l-2.44,1.45l-2.05,-1.18l0.01,-0.05zm1,-9.14l2.42,-1.4l2.06,1.18l-2.44,1.45l-2.05,-1.18l0.01,-0.05zm1.95,15.21l2.43,-1.4l2.05,1.19l-2.44,1.45l-2.03,-1.42l-0.01,0.18zm0.43,-4.13l2.43,-1.4l2.05,1.18l-2.41,1.17l-2.05,-1.18l-0.02,0.23zm0.44,-4.13l2.42,-1.4l2.06,1.18l-2.45,1.45l-2,-1.18l-0.03,-0.05zm0.54,-5l2.42,-1.4l2.06,1.18l-2.44,1.45l-2.05,-1.18l0.01,-0.05zm1.95,15.21l6.23,-3.59l2.05,1.18l-6.24,3.65l-2.05,-1.19l0.01,-0.05zm0.43,-4.13l2.43,-1.4l2.05,1.18l-2.44,1.45l-2.05,-1.18l0.01,-0.05zm0.44,-4.13l2.42,-1.4l2.06,1.18l-2.46,1.16l-2,-1.18l-0.02,0.24zm2.23,-5.17l1,-0.61l2.06,1.19l-1.06,0.65l-2,-1.18l0,-0.05zm1.13,7.11l2.42,-1.4l2.06,1.18l-2.45,1.45l-2,-1.18l-0.03,-0.05zm2.23,-5.17l1,-0.61l2.06,1.19l-1.06,0.65l-2,-1.18l0,-0.05zm1.13,7.11l2.42,-1.4l2.06,1.18l-2.45,1.45l-2,-1.18l-0.03,-0.05zm2.23,-5.17l1,-0.61l2.06,1.19l-1.06,0.65l-2,-1.18l0,-0.05zm3.35,1.94l1,-0.61l2.06,1.19l-1.06,0.65l-2,-1.18l0,-0.05z"/>
  </g>
  <g id="svg_25">
   <path id="svg_26" d="m385.58,235.17l22.95,-13.25l-114.76,-66.26l-22.95,13.25l114.76,66.26z" opacity="0.15"/>
   <path id="svg_27" fill="#e6e6e6" d="m320.59,213.6l-16.38,-9.48c-1.69,-1 -2.54,-2.25 -2.54,-3.53l0,-2.28l15.42,-8.75a3.62,3.62 0 0 0 1.63,-2.83l0,-20.2l28.62,16.54l0,20.2a3.62,3.62 0 0 1 -1.63,2.83l-12.88,7.5a13.54,13.54 0 0 1 -12.24,0z"/>
   <path id="svg_28" fill="#e0e0e0" d="m340.47,206.85l0,2.27l5.24,-3a3.6,3.6 0 0 0 1.63,-2.83l0,-20.2l-5.45,-3.15c-0.11,1.39 -0.24,2.82 -0.35,4.21l3.82,2.22l0,15.78a3.57,3.57 0 0 1 -1.63,2.83l-3.26,1.87z"/>
   <path id="svg_29" fill="#f5f5f5" d="m345.36,202.13a3.6,3.6 0 0 1 -1.63,2.83l-10.9,6.36a13.54,13.54 0 0 1 -12.24,0l-16.39,-9.48c-3.38,-1.94 -3.38,-5.11 0,-7.06l10.91,-6.36a3.6,3.6 0 0 0 1.63,-2.82l0,-15.79l28.62,16.54l0,15.78z"/>
   <path id="svg_30" fill="#ebebeb" d="m311.79,190.34l3.32,-1.92a3.6,3.6 0 0 0 1.63,-2.82l0,-15.79l28.62,16.54l0,15.78a3.6,3.6 0 0 1 -1.63,2.83l-3.26,1.89l-28.68,-16.51zm-10.12,7.97l0,2.28c0,1.28 0.85,2.55 2.53,3.53l16.39,9.47a12.32,12.32 0 0 0 5.84,1.45l0,-2.27a12.32,12.32 0 0 1 -5.84,-1.45l-16.39,-9.48c-1.68,-0.97 -2.53,-2.25 -2.53,-3.53z"/>
   <path id="svg_31" fill="#455a64" d="m391.32,223.93a4.37,4.37 0 0 1 -3.95,-0.07l-110.69,-63.86a4.49,4.49 0 0 1 -2,-3.53l0,-96.93a3.83,3.83 0 0 1 5.87,-3.39l110.68,63.91a4.49,4.49 0 0 1 2,3.53l0,96.88a4.36,4.36 0 0 1 -1.91,3.46z"/>
   <path id="svg_32" fill="#37474f" d="m387.37,223.85l-110.69,-63.85a4.49,4.49 0 0 1 -2,-3.53l0,-96.94c0,-1.3 0.91,-1.82 2,-1.17l110.69,63.9a4.52,4.52 0 0 1 2,3.53l0,96.89c0.04,1.32 -0.88,1.82 -2,1.17z"/>
   <path id="svg_33" fill="#e0e0e0" d="m387.67,224.26a3.81,3.81 0 0 0 5.56,-3.54l0,-10.9l-3.82,2.18l0,10.9c0,1.22 -0.75,1.75 -1.74,1.36z"/>
   <path id="svg_34" fill="#fff" d="m389.41,212l0,10.9c0,1.3 -0.92,1.83 -2,1.18l-110.73,-63.88a4.49,4.49 0 0 1 -2,-3.53l0,-10.9l114.73,66.23z"/>
   <path id="svg_35" fill="#407bff" d="m385.58,203.74l0,-76.68a2.72,2.72 0 0 0 -1.22,-2.12l-104.67,-60.42c-0.67,-0.39 -1.22,-0.08 -1.22,0.7l0,76.68a2.69,2.69 0 0 0 1.22,2.12l104.67,60.43c0.64,0.39 1.22,0.07 1.22,-0.71z"/>
   <path id="svg_36" opacity="0.5" fill="#fff" d="m385.58,203.74l0,-76.68a2.72,2.72 0 0 0 -1.22,-2.12l-104.67,-60.42c-0.67,-0.39 -1.22,-0.08 -1.22,0.7l0,76.68a2.69,2.69 0 0 0 1.22,2.12l104.67,60.43c0.64,0.39 1.22,0.07 1.22,-0.71z"/>
   <path id="svg_37" fill="#455a64" d="m332,183.07a4.24,4.24 0 0 1 1.91,3.31c0,1.22 -0.86,1.72 -1.91,1.11a4.24,4.24 0 0 1 -1.92,-3.32c0.03,-1.17 0.92,-1.71 1.92,-1.1z"/>
   <path id="svg_38" fill="#263238" d="m388.81,123.78a4.4,4.4 0 0 1 0.6,2l0,86.22l3.82,-2.21l0,-86.2a4.2,4.2 0 0 0 -0.6,-2l-3.82,2.19z"/>
  </g>
  <g id="svg_39">
   <path id="svg_40" fill="#455a64" d="m292.75,39.53a1.13,1.13 0 0 1 0,-0.18a0.84,0.84 0 0 1 0,-0.17a0.8,0.8 0 0 1 0.11,-0.25a0.33,0.33 0 0 1 0.06,-0.1l0.06,-0.07a0.8,0.8 0 0 1 0.13,-0.13a1,1 0 0 1 0.17,-0.1a1.43,1.43 0 0 1 1.31,0.17l129.18,74.54a4.35,4.35 0 0 1 1.95,3.39l0,93.92a1.33,1.33 0 0 1 -0.7,1.17l-0.09,0.06l-0.1,0.06l-0.17,0a1,1 0 0 1 -0.25,0a1.29,1.29 0 0 1 -0.64,-0.19l-0.05,0l-1.72,-1.05l-127.31,-73.48a4.32,4.32 0 0 1 -1.95,-3.38l0,-94c0,-0.05 0.01,-0.13 0.01,-0.21z"/>
   <path id="svg_41" fill="#407bff" d="m293.38,38.48a1.43,1.43 0 0 1 1.31,0.17l129.18,74.54a4.35,4.35 0 0 1 1.95,3.39l0,6.42l2.49,-1.46l0,-6.33a4.32,4.32 0 0 0 -1.95,-3.38l-129.18,-74.59a1.36,1.36 0 0 0 -1.41,-0.12c-0.35,0.22 -1.97,1.14 -2.39,1.36z"/>
   <path id="svg_42" fill="#407bff" d="m292.74,39.76c0,-1.23 0.88,-1.73 1.95,-1.11l129.18,74.55a4.29,4.29 0 0 1 1.95,3.38l0,6.42l-133.08,-76.83l0,-6.41z"/>
   <path id="svg_43" opacity="0.5" fill="#fff" d="m294.69,38.65l129.18,74.55a4,4 0 0 1 1.37,1.44l2.48,-1.43a3.91,3.91 0 0 0 -1.36,-1.43l-129.17,-74.54a1.38,1.38 0 0 0 -1.42,-0.12c-0.35,0.22 -2,1.14 -2.38,1.36a1.38,1.38 0 0 1 1.3,0.17z"/>
   <path id="svg_44" opacity="0.15" d="m428.32,121.5l0,-6.34a4,4 0 0 0 -0.59,-2l-2.49,1.43a3.84,3.84 0 0 1 0.59,1.94l0,6.47l2.49,-1.5z"/>
   <path id="svg_45" fill="#455a64" d="m421.42,114.54a2.91,2.91 0 0 1 1.1,2.34c0,0.93 -0.49,1.41 -1.1,1.06a2.91,2.91 0 0 1 -1.1,-2.34c0,-0.93 0.49,-1.41 1.1,-1.06zm-3.97,-2.29a2.89,2.89 0 0 1 1.1,2.33c0,0.94 -0.49,1.41 -1.1,1.06a2.89,2.89 0 0 1 -1.1,-2.33c0,-0.94 0.49,-1.41 1.1,-1.06zm-3.97,-2.25a2.91,2.91 0 0 1 1.1,2.34c0,0.93 -0.49,1.41 -1.1,1.06a2.92,2.92 0 0 1 -1.1,-2.34c0,-0.99 0.49,-1.46 1.1,-1.06z"/>
   <path id="svg_46" opacity="0.9" fill="#263238" d="m425.12,211.69l0.1,-0.06l2.06,-1.19a2.06,2.06 0 0 0 1,-1.51a2.64,2.64 0 0 0 0,-0.28l0,-87.16l-2.5,1.47l0,87.55a1.29,1.29 0 0 1 -0.61,1.11l-0.06,0l0.01,0.07z"/>
   <g id="svg_47">
    <path id="svg_48" fill="#407bff" d="m332.31,79.44l27.23,15.69a1.48,1.48 0 0 1 0.7,1.15c0,0.42 -0.31,0.58 -0.7,0.35l-27.23,-15.69a1.49,1.49 0 0 1 -0.69,-1.15c0,-0.42 0.31,-0.57 0.69,-0.35z"/>
    <path id="svg_49" fill="#e6e6e6" d="m342.72,109.48l10.28,5.94a1.48,1.48 0 0 1 0.69,1.15c0,0.41 -0.31,0.57 -0.69,0.35l-10.28,-5.92a1.46,1.46 0 0 1 -0.7,-1.15c-0.02,-0.43 0.31,-0.59 0.7,-0.37zm0,6.01l10.28,5.93a1.51,1.51 0 0 1 0.69,1.16c0,0.41 -0.31,0.57 -0.69,0.35l-10.28,-5.93a1.48,1.48 0 0 1 -0.7,-1.15c-0.02,-0.43 0.31,-0.58 0.7,-0.36z"/>
    <path id="svg_50" fill="#407bff" d="m362.23,96.68l54.53,31.4a1.51,1.51 0 0 1 0.69,1.16c0,0.41 -0.31,0.57 -0.69,0.35l-54.53,-31.4a1.51,1.51 0 0 1 -0.69,-1.16c0,-0.41 0.31,-0.57 0.69,-0.35zm-19.29,54.93l16.6,9.61a1.46,1.46 0 0 1 0.7,1.15c0,0.41 -0.31,0.57 -0.7,0.35l-16.6,-9.61a1.48,1.48 0 0 1 -0.69,-1.15c0,-0.41 0.31,-0.57 0.69,-0.35zm19.29,11.16l54.53,31.44a1.49,1.49 0 0 1 0.69,1.15c0,0.42 -0.31,0.57 -0.69,0.35l-54.53,-31.44a1.49,1.49 0 0 1 -0.69,-1.15c0,-0.42 0.31,-0.57 0.69,-0.35zm-29.92,-77.31l13.69,7.88a1.49,1.49 0 0 1 0.69,1.15c0,0.42 -0.31,0.58 -0.69,0.35l-13.69,-7.84a1.48,1.48 0 0 1 -0.69,-1.15c0,-0.45 0.31,-0.61 0.69,-0.39z"/>
    <path id="svg_51" opacity="0.6" fill="#fff" d="m332.31,85.46l13.69,7.88a1.49,1.49 0 0 1 0.69,1.15c0,0.42 -0.31,0.58 -0.69,0.35l-13.69,-7.84a1.48,1.48 0 0 1 -0.69,-1.15c0,-0.45 0.31,-0.61 0.69,-0.39z"/>
    <path id="svg_52" fill="#407bff" d="m332.31,91.46l6.42,3.7a1.49,1.49 0 0 1 0.69,1.15c0,0.41 -0.31,0.57 -0.69,0.35l-6.42,-3.66a1.49,1.49 0 0 1 -0.69,-1.15c0,-0.46 0.31,-0.61 0.69,-0.39z"/>
    <path id="svg_53" opacity="0.6" fill="#fff" d="m332.31,91.46l6.42,3.7a1.49,1.49 0 0 1 0.69,1.15c0,0.41 -0.31,0.57 -0.69,0.35l-6.42,-3.66a1.49,1.49 0 0 1 -0.69,-1.15c0,-0.46 0.31,-0.61 0.69,-0.39z"/>
    <path id="svg_54" fill="#407bff" d="m332.31,103.47l6.42,3.7a1.51,1.51 0 0 1 0.69,1.16c0,0.41 -0.31,0.57 -0.69,0.35l-6.42,-3.7a1.51,1.51 0 0 1 -0.69,-1.16c0,-0.41 0.31,-0.57 0.69,-0.35z"/>
    <path id="svg_55" opacity="0.6" fill="#fff" d="m332.31,103.47l6.42,3.7a1.51,1.51 0 0 1 0.69,1.16c0,0.41 -0.31,0.57 -0.69,0.35l-6.42,-3.7a1.51,1.51 0 0 1 -0.69,-1.16c0,-0.41 0.31,-0.57 0.69,-0.35z"/>
    <path id="svg_56" fill="#407bff" d="m332.31,109.48l6.42,3.7a1.49,1.49 0 0 1 0.69,1.15c0,0.42 -0.31,0.58 -0.69,0.35l-6.42,-3.7a1.48,1.48 0 0 1 -0.69,-1.15c0,-0.41 0.31,-0.57 0.69,-0.35z"/>
    <path id="svg_57" opacity="0.6" fill="#fff" d="m332.31,109.48l6.42,3.7a1.49,1.49 0 0 1 0.69,1.15c0,0.42 -0.31,0.58 -0.69,0.35l-6.42,-3.7a1.48,1.48 0 0 1 -0.69,-1.15c0,-0.41 0.31,-0.57 0.69,-0.35z"/>
    <path id="svg_58" fill="#407bff" d="m348.72,94.89l8.22,4.77a1.48,1.48 0 0 1 0.7,1.15c0,0.42 -0.31,0.57 -0.7,0.35l-8.22,-4.76a1.5,1.5 0 0 1 -0.7,-1.16c-0.02,-0.41 0.31,-0.57 0.7,-0.35z"/>
    <path id="svg_59" opacity="0.6" fill="#fff" d="m348.72,94.89l8.22,4.77a1.48,1.48 0 0 1 0.7,1.15c0,0.42 -0.31,0.57 -0.7,0.35l-8.22,-4.76a1.5,1.5 0 0 1 -0.7,-1.16c-0.02,-0.41 0.31,-0.57 0.7,-0.35z"/>
    <path id="svg_60" fill="#fff" d="m361.44,138.33l55.32,31.85a1.48,1.48 0 0 1 0.69,1.15c0,0.41 -0.31,0.57 -0.69,0.35l-55.32,-31.85a1.48,1.48 0 0 1 -0.7,-1.15c0,-0.42 0.31,-0.57 0.7,-0.35zm47.09,21.07l8.23,4.76a1.49,1.49 0 0 1 0.69,1.15c0,0.42 -0.31,0.57 -0.69,0.35l-8.23,-4.76a1.49,1.49 0 0 1 -0.69,-1.15c0,-0.42 0.31,-0.58 0.69,-0.35zm-58.01,-33.4l55.32,31.85a1.51,1.51 0 0 1 0.69,1.16c0,0.41 -0.31,0.57 -0.69,0.35l-55.32,-31.86a1.5,1.5 0 0 1 -0.69,-1.16c0,-0.41 0.31,-0.57 0.69,-0.34z"/>
    <path id="svg_61" fill="#407bff" d="m342.72,97.47l13.71,7.88a1.46,1.46 0 0 1 0.7,1.15c0,0.41 -0.31,0.57 -0.7,0.35l-13.71,-7.85a1.48,1.48 0 0 1 -0.7,-1.15c-0.02,-0.45 0.31,-0.61 0.7,-0.38z"/>
    <path id="svg_62" opacity="0.6" fill="#fff" d="m342.72,97.47l13.71,7.88a1.46,1.46 0 0 1 0.7,1.15c0,0.41 -0.31,0.57 -0.7,0.35l-13.71,-7.85a1.48,1.48 0 0 1 -0.7,-1.15c-0.02,-0.45 0.31,-0.61 0.7,-0.38z"/>
    <path id="svg_63" fill="#407bff" d="m359.12,106.9l57.23,33.1a1.51,1.51 0 0 1 0.69,1.16c0,0.41 -0.31,0.57 -0.69,0.35l-57.23,-33.11a1.49,1.49 0 0 1 -0.69,-1.15c0,-0.42 0.31,-0.57 0.69,-0.35z"/>
    <path id="svg_64" opacity="0.6" fill="#fff" d="m359.12,106.9l57.23,33.1a1.51,1.51 0 0 1 0.69,1.16c0,0.41 -0.31,0.57 -0.69,0.35l-57.23,-33.11a1.49,1.49 0 0 1 -0.69,-1.15c0,-0.42 0.31,-0.57 0.69,-0.35z"/>
    <path id="svg_65" fill="#e6e6e6" d="m342.72,133.64l74,42.69a1.49,1.49 0 0 1 0.69,1.15c0,0.42 -0.31,0.58 -0.69,0.36l-74,-42.7a1.48,1.48 0 0 1 -0.72,-1.14c0,-0.43 0.33,-0.58 0.72,-0.36z"/>
    <path id="svg_66" fill="#407bff" d="m332.31,127.63l6.42,3.7a1.49,1.49 0 0 1 0.69,1.15c0,0.42 -0.31,0.57 -0.69,0.35l-6.42,-3.7a1.48,1.48 0 0 1 -0.69,-1.15c0,-0.41 0.31,-0.57 0.69,-0.35z"/>
    <path id="svg_67" opacity="0.6" fill="#fff" d="m332.31,127.63l6.42,3.7a1.49,1.49 0 0 1 0.69,1.15c0,0.42 -0.31,0.57 -0.69,0.35l-6.42,-3.7a1.48,1.48 0 0 1 -0.69,-1.15c0,-0.41 0.31,-0.57 0.69,-0.35z"/>
    <path id="svg_68" fill="#e6e6e6" d="m342.72,139.64l74,42.7a1.49,1.49 0 0 1 0.69,1.15c0,0.42 -0.31,0.57 -0.69,0.35l-74,-42.7a1.46,1.46 0 0 1 -0.72,-1.14c0,-0.42 0.33,-0.58 0.72,-0.36z"/>
    <path id="svg_69" fill="#407bff" d="m332.31,133.64l6.42,3.7a1.48,1.48 0 0 1 0.69,1.15c0,0.41 -0.31,0.57 -0.69,0.35l-6.42,-3.7a1.49,1.49 0 0 1 -0.69,-1.15c0,-0.42 0.31,-0.57 0.69,-0.35z"/>
    <path id="svg_70" opacity="0.6" fill="#fff" d="m332.31,133.64l6.42,3.7a1.48,1.48 0 0 1 0.69,1.15c0,0.41 -0.31,0.57 -0.69,0.35l-6.42,-3.7a1.49,1.49 0 0 1 -0.69,-1.15c0,-0.42 0.31,-0.57 0.69,-0.35z"/>
    <path id="svg_71" fill="#e6e6e6" d="m342.72,145.65l74,42.7a1.48,1.48 0 0 1 0.69,1.15c0,0.41 -0.31,0.57 -0.69,0.35l-74,-42.7a1.48,1.48 0 0 1 -0.72,-1.15c0,-0.42 0.33,-0.57 0.72,-0.35z"/>
    <path id="svg_72" fill="#407bff" d="m332.31,139.64l6.42,3.7a1.49,1.49 0 0 1 0.69,1.15c0,0.42 -0.31,0.58 -0.69,0.36l-6.42,-3.71a1.48,1.48 0 0 1 -0.69,-1.15c0,-0.41 0.31,-0.57 0.69,-0.35z"/>
    <path id="svg_73" opacity="0.6" fill="#fff" d="m332.31,139.64l6.42,3.7a1.49,1.49 0 0 1 0.69,1.15c0,0.42 -0.31,0.58 -0.69,0.36l-6.42,-3.71a1.48,1.48 0 0 1 -0.69,-1.15c0,-0.41 0.31,-0.57 0.69,-0.35z"/>
    <g id="svg_74" fill="#fff" opacity="0.6">
     <path id="svg_75" d="m322.31,73.41l3.77,2.18a1.51,1.51 0 0 1 0.68,1.19l0,1.39c0,0.43 -0.3,0.61 -0.68,0.39l-3.77,-2.18a1.5,1.5 0 0 1 -0.69,-1.18l0,-1.39c0,-0.44 0.31,-0.61 0.69,-0.4zm0,6.07l3.77,2.18a1.51,1.51 0 0 1 0.68,1.18l0,1.39c0,0.44 -0.3,0.61 -0.68,0.4l-3.77,-2.18a1.52,1.52 0 0 1 -0.69,-1.19l0,-1.39c0,-0.43 0.31,-0.61 0.69,-0.39zm0,6.06l3.77,2.18a1.51,1.51 0 0 1 0.68,1.19l0,1.39c0,0.43 -0.3,0.61 -0.68,0.39l-3.77,-2.18a1.52,1.52 0 0 1 -0.69,-1.18l0,-1.39c0,-0.44 0.31,-0.61 0.69,-0.4zm0,6.07l3.77,2.18a1.51,1.51 0 0 1 0.68,1.18l0,1.39c0,0.44 -0.3,0.61 -0.68,0.4l-3.77,-2.18a1.52,1.52 0 0 1 -0.69,-1.19l0,-1.39c0,-0.43 0.31,-0.61 0.69,-0.39zm0,6.06l3.77,2.18a1.51,1.51 0 0 1 0.68,1.19l0,1.38c0,0.44 -0.3,0.62 -0.68,0.4l-3.77,-2.18a1.52,1.52 0 0 1 -0.69,-1.18l0,-1.39c0,-0.44 0.31,-0.62 0.69,-0.4zm0,6.07l3.77,2.18a1.49,1.49 0 0 1 0.68,1.18l0,1.39c0,0.44 -0.3,0.61 -0.68,0.4l-3.77,-2.18a1.52,1.52 0 0 1 -0.69,-1.19l0,-1.39c0,-0.43 0.31,-0.61 0.69,-0.39zm0,6.06l3.77,2.18a1.51,1.51 0 0 1 0.68,1.19l0,1.38c0,0.44 -0.3,0.62 -0.68,0.4l-3.77,-2.18a1.52,1.52 0 0 1 -0.69,-1.18l0,-1.39c0,-0.44 0.31,-0.62 0.69,-0.4zm0,6.07l3.77,2.18a1.49,1.49 0 0 1 0.68,1.18l0,1.39c0,0.44 -0.3,0.61 -0.68,0.39l-3.77,-2.17a1.52,1.52 0 0 1 -0.69,-1.19l0,-1.39c0,-0.43 0.31,-0.61 0.69,-0.39zm0,6.06l3.77,2.18a1.51,1.51 0 0 1 0.68,1.19l0,1.38c0,0.44 -0.3,0.62 -0.68,0.4l-3.77,-2.18a1.52,1.52 0 0 1 -0.69,-1.19l0,-1.38c0,-0.44 0.31,-0.62 0.69,-0.4zm0,6.07l3.77,2.18a1.48,1.48 0 0 1 0.68,1.18l0,1.39c0,0.44 -0.3,0.61 -0.68,0.39l-3.77,-2.14a1.52,1.52 0 0 1 -0.69,-1.19l0,-1.39c0,-0.42 0.31,-0.64 0.69,-0.42zm0,6.06l3.77,2.18a1.51,1.51 0 0 1 0.68,1.19l0,1.38c0,0.44 -0.3,0.62 -0.68,0.4l-3.77,-2.21a1.52,1.52 0 0 1 -0.69,-1.19l0,-1.38c0,-0.43 0.31,-0.59 0.69,-0.37zm0,6.07l3.77,2.17a1.51,1.51 0 0 1 0.68,1.19l0,1.39c0,0.44 -0.3,0.61 -0.68,0.39l-3.77,-2.17a1.52,1.52 0 0 1 -0.69,-1.19l0,-1.39c0,-0.43 0.31,-0.61 0.69,-0.39z"/>
    </g>
    <path id="svg_76" fill="#37474f" d="m297.28,53.71l20.4,11.78a3,3 0 0 1 1.37,2.37l0,23.56c0,0.87 -0.61,1.23 -1.37,0.79l-20.4,-11.78a3,3 0 0 1 -1.37,-2.37l0,-23.55c0,-0.88 0.61,-1.23 1.37,-0.8z"/>
    <path id="svg_77" fill="#407bff" d="m299.17,77.06l1.88,1.09a1.51,1.51 0 0 1 0.7,1.15c0,0.42 -0.32,0.57 -0.7,0.35l-1.88,-1.09a1.48,1.48 0 0 1 -0.69,-1.15c0,-0.41 0.31,-0.57 0.69,-0.35z"/>
    <path id="svg_78" opacity="0.6" fill="#fff" d="m299.17,77.06l1.88,1.09a1.51,1.51 0 0 1 0.7,1.15c0,0.42 -0.32,0.57 -0.7,0.35l-1.88,-1.09a1.48,1.48 0 0 1 -0.69,-1.15c0,-0.41 0.31,-0.57 0.69,-0.35z"/>
    <path id="svg_79" fill="#407bff" d="m299.17,57.77l1.88,1.09a1.51,1.51 0 0 1 0.7,1.15c0,0.42 -0.32,0.57 -0.7,0.35l-1.88,-1.08a1.51,1.51 0 0 1 -0.69,-1.16c0,-0.41 0.31,-0.57 0.69,-0.35z"/>
    <path id="svg_80" opacity="0.6" fill="#fff" d="m299.17,57.77l1.88,1.09a1.51,1.51 0 0 1 0.7,1.15c0,0.42 -0.32,0.57 -0.7,0.35l-1.88,-1.08a1.51,1.51 0 0 1 -0.69,-1.16c0,-0.41 0.31,-0.57 0.69,-0.35z"/>
    <path id="svg_81" fill="#407bff" d="m301.81,63.15l1.88,1.08a1.49,1.49 0 0 1 0.69,1.15c0,0.42 -0.31,0.58 -0.69,0.35l-1.88,-1.08a1.49,1.49 0 0 1 -0.69,-1.15c0,-0.42 0.31,-0.57 0.69,-0.35z"/>
    <path id="svg_82" opacity="0.6" fill="#fff" d="m301.81,63.15l1.88,1.08a1.49,1.49 0 0 1 0.69,1.15c0,0.42 -0.31,0.58 -0.69,0.35l-1.88,-1.08a1.49,1.49 0 0 1 -0.69,-1.15c0,-0.42 0.31,-0.57 0.69,-0.35z"/>
    <path id="svg_83" fill="#407bff" d="m301.81,67l1.88,1.09a1.49,1.49 0 0 1 0.69,1.15c0,0.42 -0.31,0.57 -0.69,0.35l-1.88,-1.08a1.49,1.49 0 0 1 -0.69,-1.15c0,-0.43 0.31,-0.59 0.69,-0.36z"/>
    <path id="svg_84" opacity="0.6" fill="#fff" d="m301.81,67l1.88,1.09a1.49,1.49 0 0 1 0.69,1.15c0,0.42 -0.31,0.57 -0.69,0.35l-1.88,-1.08a1.49,1.49 0 0 1 -0.69,-1.15c0,-0.43 0.31,-0.59 0.69,-0.36z"/>
    <path id="svg_85" fill="#407bff" d="m299.17,69.34l1.88,1.09a1.51,1.51 0 0 1 0.7,1.15c0,0.42 -0.32,0.57 -0.7,0.35l-1.88,-1.08a1.5,1.5 0 0 1 -0.69,-1.16c0,-0.41 0.31,-0.57 0.69,-0.35z"/>
    <path id="svg_86" opacity="0.6" fill="#fff" d="m299.17,69.34l1.88,1.09a1.51,1.51 0 0 1 0.7,1.15c0,0.42 -0.32,0.57 -0.7,0.35l-1.88,-1.08a1.5,1.5 0 0 1 -0.69,-1.16c0,-0.41 0.31,-0.57 0.69,-0.35z"/>
    <path id="svg_87" fill="#407bff" d="m301.81,74.72l1.88,1.09a1.48,1.48 0 0 1 0.69,1.15c0,0.41 -0.31,0.57 -0.69,0.35l-1.88,-1.09a1.48,1.48 0 0 1 -0.69,-1.15c0,-0.41 0.31,-0.57 0.69,-0.35z"/>
    <path id="svg_88" opacity="0.6" fill="#fff" d="m301.81,74.72l1.88,1.09a1.48,1.48 0 0 1 0.69,1.15c0,0.41 -0.31,0.57 -0.69,0.35l-1.88,-1.09a1.48,1.48 0 0 1 -0.69,-1.15c0,-0.41 0.31,-0.57 0.69,-0.35z"/>
    <path id="svg_89" fill="#407bff" d="m304.32,60.74l11.46,6.63a1.46,1.46 0 0 1 0.7,1.15c0,0.41 -0.31,0.57 -0.7,0.35l-11.46,-6.62a1.48,1.48 0 0 1 -0.7,-1.16c0,-0.41 0.31,-0.57 0.7,-0.35z"/>
    <path id="svg_90" opacity="0.8" fill="#fff" d="m304.32,60.74l11.46,6.63a1.46,1.46 0 0 1 0.7,1.15c0,0.41 -0.31,0.57 -0.7,0.35l-11.46,-6.62a1.48,1.48 0 0 1 -0.7,-1.16c0,-0.41 0.31,-0.57 0.7,-0.35z"/>
    <path id="svg_91" fill="#407bff" d="m304.32,80l11.46,6.63a1.46,1.46 0 0 1 0.7,1.15c0,0.41 -0.31,0.57 -0.7,0.35l-11.46,-6.62a1.5,1.5 0 0 1 -0.7,-1.16c0,-0.35 0.31,-0.54 0.7,-0.35z"/>
    <path id="svg_92" opacity="0.8" fill="#fff" d="m304.32,80l11.46,6.63a1.46,1.46 0 0 1 0.7,1.15c0,0.41 -0.31,0.57 -0.7,0.35l-11.46,-6.62a1.5,1.5 0 0 1 -0.7,-1.16c0,-0.35 0.31,-0.54 0.7,-0.35z"/>
    <path id="svg_93" fill="#407bff" d="m307,66.12l8.82,5.1a1.48,1.48 0 0 1 0.7,1.16c0,0.41 -0.31,0.57 -0.7,0.35l-8.82,-5.11a1.48,1.48 0 0 1 -0.7,-1.15c-0.04,-0.42 0.27,-0.57 0.7,-0.35z"/>
    <path id="svg_94" opacity="0.8" fill="#fff" d="m307,66.12l8.82,5.1a1.48,1.48 0 0 1 0.7,1.16c0,0.41 -0.31,0.57 -0.7,0.35l-8.82,-5.11a1.48,1.48 0 0 1 -0.7,-1.15c-0.04,-0.42 0.27,-0.57 0.7,-0.35z"/>
    <path id="svg_95" fill="#407bff" d="m307,70l8.82,5.11a1.48,1.48 0 0 1 0.7,1.15c0,0.42 -0.31,0.57 -0.7,0.35l-8.82,-5.13a1.48,1.48 0 0 1 -0.7,-1.15c-0.04,-0.42 0.27,-0.58 0.7,-0.33z"/>
    <path id="svg_96" opacity="0.8" fill="#fff" d="m307,70l8.82,5.11a1.48,1.48 0 0 1 0.7,1.15c0,0.42 -0.31,0.57 -0.7,0.35l-8.82,-5.13a1.48,1.48 0 0 1 -0.7,-1.15c-0.04,-0.42 0.27,-0.58 0.7,-0.33z"/>
    <path id="svg_97" fill="#407bff" d="m304.32,72.32l11.46,6.62a1.48,1.48 0 0 1 0.7,1.15c0,0.42 -0.31,0.57 -0.7,0.35l-11.46,-6.62a1.48,1.48 0 0 1 -0.7,-1.15c0,-0.42 0.31,-0.57 0.7,-0.35z"/>
    <path id="svg_98" opacity="0.8" fill="#fff" d="m304.32,72.32l11.46,6.62a1.48,1.48 0 0 1 0.7,1.15c0,0.42 -0.31,0.57 -0.7,0.35l-11.46,-6.62a1.48,1.48 0 0 1 -0.7,-1.15c0,-0.42 0.31,-0.57 0.7,-0.35z"/>
    <path id="svg_99" fill="#407bff" d="m307,77.69l8.82,5.11a1.46,1.46 0 0 1 0.7,1.15c0,0.41 -0.31,0.57 -0.7,0.35l-8.82,-5.11a1.46,1.46 0 0 1 -0.7,-1.15c-0.04,-0.41 0.27,-0.57 0.7,-0.35z"/>
    <path id="svg_100" opacity="0.8" fill="#fff" d="m307,77.69l8.82,5.11a1.46,1.46 0 0 1 0.7,1.15c0,0.41 -0.31,0.57 -0.7,0.35l-8.82,-5.11a1.46,1.46 0 0 1 -0.7,-1.15c-0.04,-0.41 0.27,-0.57 0.7,-0.35z"/>
    <path id="svg_101" fill="#37474f" d="m297.28,84.87l20.4,11.77a3,3 0 0 1 1.37,2.36l0,46.54c0,0.88 -0.61,1.23 -1.37,0.79l-20.4,-11.78a3,3 0 0 1 -1.37,-2.37l0,-46.52c0,-0.88 0.61,-1.23 1.37,-0.79z"/>
    <path id="svg_102" fill="#407bff" d="m299.17,88.92l1.88,1.08a1.51,1.51 0 0 1 0.7,1.15c0,0.42 -0.32,0.57 -0.7,0.35l-1.88,-1.08a1.49,1.49 0 0 1 -0.69,-1.15c0,-0.41 0.31,-0.57 0.69,-0.35z"/>
    <path id="svg_103" opacity="0.6" fill="#fff" d="m299.17,88.92l1.88,1.08a1.51,1.51 0 0 1 0.7,1.15c0,0.42 -0.32,0.57 -0.7,0.35l-1.88,-1.08a1.49,1.49 0 0 1 -0.69,-1.15c0,-0.41 0.31,-0.57 0.69,-0.35z"/>
    <path id="svg_104" fill="#407bff" d="m301.81,94.3l1.88,1.08a1.5,1.5 0 0 1 0.69,1.16c0,0.41 -0.31,0.57 -0.69,0.35l-1.88,-1.09a1.49,1.49 0 0 1 -0.69,-1.15c0,-0.42 0.31,-0.57 0.69,-0.35z"/>
    <path id="svg_105" opacity="0.6" fill="#fff" d="m301.81,94.3l1.88,1.08a1.5,1.5 0 0 1 0.69,1.16c0,0.41 -0.31,0.57 -0.69,0.35l-1.88,-1.09a1.49,1.49 0 0 1 -0.69,-1.15c0,-0.42 0.31,-0.57 0.69,-0.35z"/>
    <path id="svg_106" fill="#407bff" d="m301.81,98.15l1.88,1.08a1.49,1.49 0 0 1 0.69,1.15c0,0.42 -0.31,0.57 -0.69,0.35l-1.88,-1.08a1.49,1.49 0 0 1 -0.69,-1.15c0,-0.42 0.31,-0.58 0.69,-0.35z"/>
    <path id="svg_107" opacity="0.6" fill="#fff" d="m301.81,98.15l1.88,1.08a1.49,1.49 0 0 1 0.69,1.15c0,0.42 -0.31,0.57 -0.69,0.35l-1.88,-1.08a1.49,1.49 0 0 1 -0.69,-1.15c0,-0.42 0.31,-0.58 0.69,-0.35z"/>
    <path id="svg_108" fill="#407bff" d="m299.17,100.5l1.88,1.08a1.51,1.51 0 0 1 0.7,1.15c0,0.42 -0.32,0.57 -0.7,0.35l-1.88,-1.08a1.49,1.49 0 0 1 -0.69,-1.15c0,-0.42 0.31,-0.58 0.69,-0.35z"/>
    <path id="svg_109" opacity="0.6" fill="#fff" d="m299.17,100.5l1.88,1.08a1.51,1.51 0 0 1 0.7,1.15c0,0.42 -0.32,0.57 -0.7,0.35l-1.88,-1.08a1.49,1.49 0 0 1 -0.69,-1.15c0,-0.42 0.31,-0.58 0.69,-0.35z"/>
    <path id="svg_110" fill="#407bff" d="m304.32,91.9l11.46,6.62a1.46,1.46 0 0 1 0.7,1.15c0,0.41 -0.31,0.57 -0.7,0.35l-11.46,-6.62a1.48,1.48 0 0 1 -0.7,-1.15c0,-0.42 0.31,-0.58 0.7,-0.35z"/>
    <path id="svg_111" opacity="0.8" fill="#fff" d="m304.32,91.9l11.46,6.62a1.46,1.46 0 0 1 0.7,1.15c0,0.41 -0.31,0.57 -0.7,0.35l-11.46,-6.62a1.48,1.48 0 0 1 -0.7,-1.15c0,-0.42 0.31,-0.58 0.7,-0.35z"/>
    <path id="svg_112" fill="#407bff" d="m307,97.27l8.82,5.11a1.46,1.46 0 0 1 0.7,1.15c0,0.41 -0.31,0.57 -0.7,0.35l-8.82,-5.11a1.48,1.48 0 0 1 -0.7,-1.15c-0.04,-0.42 0.27,-0.57 0.7,-0.35z"/>
    <path id="svg_113" opacity="0.8" fill="#fff" d="m307,97.27l8.82,5.11a1.46,1.46 0 0 1 0.7,1.15c0,0.41 -0.31,0.57 -0.7,0.35l-8.82,-5.11a1.48,1.48 0 0 1 -0.7,-1.15c-0.04,-0.42 0.27,-0.57 0.7,-0.35z"/>
    <path id="svg_114" fill="#407bff" d="m307,101.13l8.82,5.1a1.48,1.48 0 0 1 0.7,1.15c0,0.42 -0.31,0.58 -0.7,0.36l-8.82,-5.11a1.48,1.48 0 0 1 -0.7,-1.15c-0.04,-0.42 0.27,-0.58 0.7,-0.35z"/>
    <path id="svg_115" opacity="0.8" fill="#fff" d="m307,101.13l8.82,5.1a1.48,1.48 0 0 1 0.7,1.15c0,0.42 -0.31,0.58 -0.7,0.36l-8.82,-5.11a1.48,1.48 0 0 1 -0.7,-1.15c-0.04,-0.42 0.27,-0.58 0.7,-0.35z"/>
    <path id="svg_116" fill="#407bff" d="m304.32,103.47l11.46,6.62a1.48,1.48 0 0 1 0.7,1.15c0,0.42 -0.31,0.57 -0.7,0.35l-11.46,-6.59a1.48,1.48 0 0 1 -0.7,-1.15c0,-0.45 0.31,-0.6 0.7,-0.38z"/>
    <path id="svg_117" opacity="0.8" fill="#fff" d="m304.32,103.47l11.46,6.62a1.48,1.48 0 0 1 0.7,1.15c0,0.42 -0.31,0.57 -0.7,0.35l-11.46,-6.59a1.48,1.48 0 0 1 -0.7,-1.15c0,-0.45 0.31,-0.6 0.7,-0.38z"/>
    <path id="svg_118" fill="#407bff" d="m301.81,105.89l1.88,1.09a1.49,1.49 0 0 1 0.69,1.15c0,0.42 -0.31,0.57 -0.69,0.35l-1.88,-1.08a1.49,1.49 0 0 1 -0.69,-1.15c0,-0.42 0.31,-0.58 0.69,-0.36z"/>
    <path id="svg_119" opacity="0.6" fill="#fff" d="m301.81,105.89l1.88,1.09a1.49,1.49 0 0 1 0.69,1.15c0,0.42 -0.31,0.57 -0.69,0.35l-1.88,-1.08a1.49,1.49 0 0 1 -0.69,-1.15c0,-0.42 0.31,-0.58 0.69,-0.36z"/>
    <path id="svg_120" fill="#407bff" d="m301.81,109.74l1.88,1.09a1.49,1.49 0 0 1 0.69,1.15c0,0.41 -0.31,0.57 -0.69,0.35l-1.88,-1.09a1.48,1.48 0 0 1 -0.69,-1.15c0,-0.41 0.31,-0.57 0.69,-0.35z"/>
    <path id="svg_121" opacity="0.6" fill="#fff" d="m301.81,109.74l1.88,1.09a1.49,1.49 0 0 1 0.69,1.15c0,0.41 -0.31,0.57 -0.69,0.35l-1.88,-1.09a1.48,1.48 0 0 1 -0.69,-1.15c0,-0.41 0.31,-0.57 0.69,-0.35z"/>
    <path id="svg_122" fill="#407bff" d="m307,108.86l8.82,5.11a1.48,1.48 0 0 1 0.7,1.15c0,0.42 -0.31,0.58 -0.7,0.35l-8.82,-5.1a1.48,1.48 0 0 1 -0.7,-1.15c-0.04,-0.42 0.27,-0.58 0.7,-0.36z"/>
    <path id="svg_123" opacity="0.8" fill="#fff" d="m307,108.86l8.82,5.11a1.48,1.48 0 0 1 0.7,1.15c0,0.42 -0.31,0.58 -0.7,0.35l-8.82,-5.1a1.48,1.48 0 0 1 -0.7,-1.15c-0.04,-0.42 0.27,-0.58 0.7,-0.36z"/>
    <path id="svg_124" fill="#407bff" d="m307,112.72l8.82,5.11a1.48,1.48 0 0 1 0.7,1.15c0,0.42 -0.31,0.57 -0.7,0.35l-8.82,-5.11a1.46,1.46 0 0 1 -0.7,-1.15c-0.04,-0.41 0.27,-0.57 0.7,-0.35z"/>
    <path id="svg_125" opacity="0.8" fill="#fff" d="m307,112.72l8.82,5.11a1.48,1.48 0 0 1 0.7,1.15c0,0.42 -0.31,0.57 -0.7,0.35l-8.82,-5.11a1.46,1.46 0 0 1 -0.7,-1.15c-0.04,-0.41 0.27,-0.57 0.7,-0.35z"/>
    <path id="svg_126" fill="#407bff" d="m299.17,119.83l1.88,1.09a1.49,1.49 0 0 1 0.7,1.15c0,0.41 -0.32,0.57 -0.7,0.35l-1.88,-1.09a1.48,1.48 0 0 1 -0.69,-1.15c0,-0.41 0.31,-0.57 0.69,-0.35z"/>
    <path id="svg_127" opacity="0.6" fill="#fff" d="m299.17,119.83l1.88,1.09a1.49,1.49 0 0 1 0.7,1.15c0,0.41 -0.32,0.57 -0.7,0.35l-1.88,-1.09a1.48,1.48 0 0 1 -0.69,-1.15c0,-0.41 0.31,-0.57 0.69,-0.35z"/>
    <path id="svg_128" fill="#407bff" d="m304.32,122.8l11.46,6.63a1.46,1.46 0 0 1 0.7,1.15c0,0.41 -0.31,0.57 -0.7,0.35l-11.46,-6.62a1.48,1.48 0 0 1 -0.7,-1.15c0,-0.42 0.31,-0.58 0.7,-0.36z"/>
    <path id="svg_129" opacity="0.8" fill="#fff" d="m304.32,122.8l11.46,6.63a1.46,1.46 0 0 1 0.7,1.15c0,0.41 -0.31,0.57 -0.7,0.35l-11.46,-6.62a1.48,1.48 0 0 1 -0.7,-1.15c0,-0.42 0.31,-0.58 0.7,-0.36z"/>
    <path id="svg_130" fill="#407bff" d="m301.81,125.23l1.88,1.09a1.48,1.48 0 0 1 0.69,1.15c0,0.41 -0.31,0.57 -0.69,0.35l-1.88,-1.09a1.48,1.48 0 0 1 -0.69,-1.15c0,-0.41 0.31,-0.58 0.69,-0.35z"/>
    <path id="svg_131" opacity="0.6" fill="#fff" d="m301.81,125.23l1.88,1.09a1.48,1.48 0 0 1 0.69,1.15c0,0.41 -0.31,0.57 -0.69,0.35l-1.88,-1.09a1.48,1.48 0 0 1 -0.69,-1.15c0,-0.41 0.31,-0.58 0.69,-0.35z"/>
    <path id="svg_132" fill="#407bff" d="m301.81,129.08l1.88,1.08a1.51,1.51 0 0 1 0.69,1.16c0,0.41 -0.31,0.57 -0.69,0.35l-1.88,-1.09a1.49,1.49 0 0 1 -0.69,-1.15c0,-0.43 0.31,-0.57 0.69,-0.35z"/>
    <path id="svg_133" opacity="0.6" fill="#fff" d="m301.81,129.08l1.88,1.08a1.51,1.51 0 0 1 0.69,1.16c0,0.41 -0.31,0.57 -0.69,0.35l-1.88,-1.09a1.49,1.49 0 0 1 -0.69,-1.15c0,-0.43 0.31,-0.57 0.69,-0.35z"/>
    <path id="svg_134" fill="#407bff" d="m307,128.2l8.82,5.11a1.46,1.46 0 0 1 0.7,1.15c0,0.41 -0.31,0.57 -0.7,0.35l-8.82,-5.11a1.46,1.46 0 0 1 -0.7,-1.15c-0.04,-0.41 0.27,-0.55 0.7,-0.35z"/>
    <path id="svg_135" opacity="0.8" fill="#fff" d="m307,128.2l8.82,5.11a1.46,1.46 0 0 1 0.7,1.15c0,0.41 -0.31,0.57 -0.7,0.35l-8.82,-5.11a1.46,1.46 0 0 1 -0.7,-1.15c-0.04,-0.41 0.27,-0.55 0.7,-0.35z"/>
    <path id="svg_136" fill="#407bff" d="m307,132.06l8.82,5.11a1.46,1.46 0 0 1 0.7,1.15c0,0.41 -0.31,0.57 -0.7,0.35l-8.82,-5.11a1.48,1.48 0 0 1 -0.7,-1.15c-0.04,-0.41 0.27,-0.57 0.7,-0.35z"/>
    <path id="svg_137" opacity="0.8" fill="#fff" d="m307,132.06l8.82,5.11a1.46,1.46 0 0 1 0.7,1.15c0,0.41 -0.31,0.57 -0.7,0.35l-8.82,-5.11a1.48,1.48 0 0 1 -0.7,-1.15c-0.04,-0.41 0.27,-0.57 0.7,-0.35z"/>
    <path id="svg_138" fill="#407bff" d="m301.81,113.57l1.88,1.09a1.48,1.48 0 0 1 0.69,1.15c0,0.41 -0.31,0.57 -0.69,0.35l-1.88,-1.09a1.48,1.48 0 0 1 -0.69,-1.15c0,-0.41 0.31,-0.57 0.69,-0.35z"/>
    <path id="svg_139" opacity="0.6" fill="#fff" d="m301.81,113.57l1.88,1.09a1.48,1.48 0 0 1 0.69,1.15c0,0.41 -0.31,0.57 -0.69,0.35l-1.88,-1.09a1.48,1.48 0 0 1 -0.69,-1.15c0,-0.41 0.31,-0.57 0.69,-0.35z"/>
    <path id="svg_140" fill="#407bff" d="m299.17,115.92l1.88,1.09a1.49,1.49 0 0 1 0.7,1.15c0,0.41 -0.32,0.57 -0.7,0.35l-1.88,-1.09a1.48,1.48 0 0 1 -0.69,-1.15c0,-0.41 0.31,-0.57 0.69,-0.35z"/>
    <path id="svg_141" opacity="0.6" fill="#fff" d="m299.17,115.92l1.88,1.09a1.49,1.49 0 0 1 0.7,1.15c0,0.41 -0.32,0.57 -0.7,0.35l-1.88,-1.09a1.48,1.48 0 0 1 -0.69,-1.15c0,-0.41 0.31,-0.57 0.69,-0.35z"/>
    <path id="svg_142" fill="#407bff" d="m307,116.55l8.82,5.11a1.46,1.46 0 0 1 0.7,1.15c0,0.41 -0.31,0.57 -0.7,0.35l-8.82,-5.11a1.46,1.46 0 0 1 -0.7,-1.15c-0.04,-0.41 0.27,-0.57 0.7,-0.35z"/>
    <path id="svg_143" opacity="0.8" fill="#fff" d="m307,116.55l8.82,5.11a1.46,1.46 0 0 1 0.7,1.15c0,0.41 -0.31,0.57 -0.7,0.35l-8.82,-5.11a1.46,1.46 0 0 1 -0.7,-1.15c-0.04,-0.41 0.27,-0.57 0.7,-0.35z"/>
    <path id="svg_144" fill="#407bff" d="m304.32,118.89l11.46,6.63a1.46,1.46 0 0 1 0.7,1.15c0,0.41 -0.31,0.57 -0.7,0.35l-11.46,-6.62a1.5,1.5 0 0 1 -0.7,-1.16c0,-0.41 0.31,-0.57 0.7,-0.35z"/>
    <path id="svg_145" opacity="0.8" fill="#fff" d="m304.32,118.89l11.46,6.63a1.46,1.46 0 0 1 0.7,1.15c0,0.41 -0.31,0.57 -0.7,0.35l-11.46,-6.62a1.5,1.5 0 0 1 -0.7,-1.16c0,-0.41 0.31,-0.57 0.7,-0.35z"/>
    <path id="svg_146" fill="#407bff" d="m299.17,131.48l1.88,1.09a1.49,1.49 0 0 1 0.7,1.15c0,0.41 -0.32,0.57 -0.7,0.35l-1.88,-1.07a1.48,1.48 0 0 1 -0.69,-1.15c0,-0.43 0.31,-0.59 0.69,-0.37z"/>
    <path id="svg_147" opacity="0.6" fill="#fff" d="m299.17,131.48l1.88,1.09a1.49,1.49 0 0 1 0.7,1.15c0,0.41 -0.32,0.57 -0.7,0.35l-1.88,-1.07a1.48,1.48 0 0 1 -0.69,-1.15c0,-0.43 0.31,-0.59 0.69,-0.37z"/>
    <path id="svg_148" fill="#407bff" d="m304.32,134.46l11.46,6.62a1.46,1.46 0 0 1 0.7,1.15c0,0.41 -0.31,0.57 -0.7,0.35l-11.46,-6.58a1.48,1.48 0 0 1 -0.7,-1.15c0,-0.46 0.31,-0.62 0.7,-0.39z"/>
    <path id="svg_149" opacity="0.8" fill="#fff" d="m304.32,134.46l11.46,6.62a1.46,1.46 0 0 1 0.7,1.15c0,0.41 -0.31,0.57 -0.7,0.35l-11.46,-6.58a1.48,1.48 0 0 1 -0.7,-1.15c0,-0.46 0.31,-0.62 0.7,-0.39z"/>
   </g>
  </g>
  <g id="svg_150">
   <path id="svg_151" opacity="0.8" fill="#455a64" d="m410.78,150.29l0,76.38a3.51,3.51 0 0 0 1.59,2.75l43.88,25.32a1.1,1.1 0 0 0 0.53,0.15l0.42,0l0.09,-0.06l0.09,-0.08a1.22,1.22 0 0 0 0.29,-0.42a1.88,1.88 0 0 0 0.17,-0.8l0,-76a3.5,3.5 0 0 0 -1.59,-2.75l-43.88,-25.29a1.16,1.16 0 0 0 -1.07,-0.14l-0.13,0.08l-0.11,0.1a0.21,0.21 0 0 0 0,0.06a0.26,0.26 0 0 0 -0.05,0.09a0.54,0.54 0 0 0 -0.1,0.2a0.58,0.58 0 0 0 0,0.14l0,0.15c-0.12,-0.01 -0.13,0.06 -0.13,0.12z"/>
   <path id="svg_152" fill="#407bff" d="m411.3,149.24a1.16,1.16 0 0 1 1.07,0.14l43.88,25.29a3.5,3.5 0 0 1 1.59,2.75l0,5.18l2.53,-1.46l0,-5.14a3.48,3.48 0 0 0 -1.59,-2.74l-43.88,-25.26a1.11,1.11 0 0 0 -1.15,-0.1c-0.29,0.1 -2.11,1.17 -2.45,1.34z"/>
   <path id="svg_153" fill="#407bff" d="m410.79,150.28c0,-1 0.71,-1.4 1.58,-0.9l43.88,25.29a3.51,3.51 0 0 1 1.59,2.75l0,5.18l-47,-27.11l-0.05,-5.21z"/>
   <path id="svg_154" opacity="0.5" fill="#fff" d="m412.37,149.38l43.88,25.29a3.27,3.27 0 0 1 1.12,1.18l2.52,-1.45a3.23,3.23 0 0 0 -1.11,-1.15l-43.88,-25.25a1.11,1.11 0 0 0 -1.15,-0.1c-0.28,0.18 -2.11,1.2 -2.44,1.38a1.11,1.11 0 0 1 1.06,0.1z"/>
   <path id="svg_155" opacity="0.15" d="m460.37,181.15l0,-5.15a3.36,3.36 0 0 0 -0.48,-1.59l-2.53,1.44a3.16,3.16 0 0 1 0.48,1.58l0,5.18l2.53,-1.46z"/>
   <path id="svg_156" fill="#455a64" d="m455.53,176.8a2.37,2.37 0 0 1 0.9,1.9c0,0.76 -0.4,1.15 -0.9,0.86a2.36,2.36 0 0 1 -0.9,-1.89c0,-0.77 0.37,-1.15 0.9,-0.87zm-3.23,-1.86a2.33,2.33 0 0 1 0.9,1.89c0,0.77 -0.4,1.15 -0.9,0.87a2.39,2.39 0 0 1 -0.89,-1.9c0,-0.8 0.4,-1.15 0.89,-0.86zm-3.22,-1.87a2.39,2.39 0 0 1 0.92,1.93c0,0.76 -0.4,1.15 -0.89,0.86a2.35,2.35 0 0 1 -0.9,-1.9c-0.03,-0.79 0.37,-1.17 0.87,-0.89z"/>
   <path id="svg_157" opacity="0.9" fill="#37474f" d="m457.26,254.74l0.19,-0.11l0.49,-0.28a1.74,1.74 0 0 1 0.26,-0.15l0.42,-0.24l0.85,-0.48l0.2,-0.11a0.9,0.9 0 0 0 0.27,-0.21a1.1,1.1 0 0 0 0.21,-0.33a1.89,1.89 0 0 0 0.19,-0.84l0,-70.85l-2.53,1.46l0,70.81a2.31,2.31 0 0 1 -0.17,0.8a1.22,1.22 0 0 1 -0.29,0.42a0.24,0.24 0 0 1 -0.09,0.08l0,0.03z"/>
   <path id="svg_158" fill="#407bff" d="m414.43,164.25a0.25,0.25 0 0 1 0.08,-0.2l1.14,-1l0.05,0a0.17,0.17 0 0 1 0.09,0.11a0.29,0.29 0 0 1 0,0.16l0,0.79a1.09,1.09 0 0 1 0,0.22a0.83,0.83 0 0 1 -0.08,0.12l-0.61,0.55l0.61,1.25c0,0.08 0.06,0.15 0.08,0.22a1.44,1.44 0 0 1 0,0.24l0,0.91a0.07,0.07 0 0 1 -0.09,0l-0.05,-0.07l-1.14,-2.37a0.67,0.67 0 0 1 -0.08,-0.29l0,-0.64zm4.17,-1.1a0.3,0.3 0 0 1 0.09,-0.13l0.17,0l0.42,0.25a0.17,0.17 0 0 1 0.09,0.11a0.29,0.29 0 0 1 0,0.16a0.2,0.2 0 0 1 0,0.07l-2,6.08a0.26,0.26 0 0 1 -0.08,0.13l-0.17,0l-0.41,-0.24a0.2,0.2 0 0 1 -0.09,-0.11a0.32,0.32 0 0 1 0,-0.16l0,-0.07l1.98,-6.09zm3.03,5.85a0.26,0.26 0 0 1 -0.08,0.21l-1.14,1a0.07,0.07 0 0 1 -0.06,0a0.2,0.2 0 0 1 -0.09,-0.11a0.32,0.32 0 0 1 0,-0.16l0,-0.79a1,1 0 0 1 0,-0.22a0.35,0.35 0 0 1 0.08,-0.13l0.6,-0.55l-0.6,-1.24a2.11,2.11 0 0 1 -0.08,-0.22a1.44,1.44 0 0 1 0,-0.24l0,-0.8a0.12,0.12 0 0 1 0,-0.11l0.09,0a0.22,0.22 0 0 1 0.06,0.07l1.14,2.36a0.67,0.67 0 0 1 0.08,0.3l0,0.63zm3.17,3.11a0.29,0.29 0 0 1 0.11,0.13a0.48,0.48 0 0 1 0,0.2l0,0.87a0.18,0.18 0 0 1 0,0.14a0.08,0.08 0 0 1 -0.11,0l-0.54,-0.31a0.29,0.29 0 0 1 -0.11,-0.13a0.49,0.49 0 0 1 0,-0.2l0,-0.81a0.21,0.21 0 0 1 0,-0.15a0.08,0.08 0 0 1 0.11,0l0.54,0.26zm1.8,1.04a0.29,0.29 0 0 1 0.11,0.13a0.48,0.48 0 0 1 0,0.2l0,0.87a0.18,0.18 0 0 1 0,0.14a0.09,0.09 0 0 1 -0.11,0l-0.54,-0.31a0.36,0.36 0 0 1 -0.11,-0.13a0.53,0.53 0 0 1 -0.05,-0.2l0,-0.85a0.21,0.21 0 0 1 0.05,-0.15a0.08,0.08 0 0 1 0.11,0l0.54,0.3zm1.8,1.04a0.25,0.25 0 0 1 0.11,0.13a0.48,0.48 0 0 1 0,0.2l0,0.87a0.2,0.2 0 0 1 0,0.14a0.09,0.09 0 0 1 -0.11,0l-0.54,-0.31a0.33,0.33 0 0 1 -0.11,-0.14a0.45,0.45 0 0 1 -0.05,-0.19l0,-0.89a0.2,0.2 0 0 1 0.05,-0.14a0.09,0.09 0 0 1 0.11,0l0.54,0.33zm-13.49,-3.02l26.36,15.22a1.2,1.2 0 0 1 0.57,0.94c0,0.34 -0.25,0.46 -0.57,0.28l-26.36,-15.22a1.21,1.21 0 0 1 -0.56,-0.93c0,-0.34 0.25,-0.46 0.56,-0.29z"/>
   <path id="svg_159" fill="#e6e6e6" d="m423.37,190.71l26.36,15.22a1.19,1.19 0 0 1 0.57,0.93c0,0.34 -0.25,0.47 -0.57,0.29l-26.36,-15.22a1.21,1.21 0 0 1 -0.56,-0.94c0,-0.34 0.25,-0.46 0.56,-0.28zm0,9.76l12.63,7.29a1.21,1.21 0 0 1 0.56,0.94c0,0.34 -0.25,0.46 -0.56,0.28l-12.62,-7.29a1.19,1.19 0 0 1 -0.56,-0.93c-0.01,-0.34 0.24,-0.47 0.55,-0.29z"/>
   <path id="svg_160" fill="#407bff" d="m443.46,187.65l10.5,6a1.19,1.19 0 0 1 0.57,0.93c0,0.34 -0.26,0.47 -0.57,0.29l-10.5,-6a1.19,1.19 0 0 1 -0.56,-0.93c0,-0.34 0.25,-0.47 0.56,-0.29zm-28.55,37.24l26.36,15.22a1.19,1.19 0 0 1 0.57,0.93c0,0.34 -0.25,0.47 -0.57,0.29l-26.36,-15.22a1.21,1.21 0 0 1 -0.56,-0.94c0,-0.34 0.25,-0.46 0.56,-0.28zm28.55,16.48l10.5,6a1.22,1.22 0 0 1 0.57,0.94c0,0.33 -0.26,0.46 -0.57,0.28l-10.5,-6a1.21,1.21 0 0 1 -0.56,-0.94c0,-0.33 0.25,-0.46 0.56,-0.28zm0,-14.63l10.5,6a1.2,1.2 0 0 1 0.57,0.93c0,0.34 -0.26,0.47 -0.57,0.29l-10.5,-6a1.21,1.21 0 0 1 -0.56,-0.94c0,-0.33 0.25,-0.46 0.56,-0.28zm0,4.89l10.5,6a1.22,1.22 0 0 1 0.57,0.93c0,0.34 -0.26,0.47 -0.57,0.29l-10.5,-6a1.21,1.21 0 0 1 -0.56,-0.94c0,-0.34 0.25,-0.46 0.56,-0.28zm-8.96,-10.07l5.9,3.41a1.18,1.18 0 0 1 0.57,0.93c0,0.34 -0.25,0.47 -0.57,0.29l-5.9,-3.41a1.21,1.21 0 0 1 -0.56,-0.94c0,-0.33 0.25,-0.46 0.56,-0.28zm-19.59,-45.49l15.38,8.87a1.21,1.21 0 0 1 0.56,0.93c0,0.34 -0.25,0.47 -0.56,0.29l-15.38,-8.87a1.21,1.21 0 0 1 -0.56,-0.94c0,-0.35 0.25,-0.46 0.56,-0.28z"/>
   <path id="svg_161" opacity="0.6" fill="#fff" d="m414.91,176.07l15.38,8.87a1.21,1.21 0 0 1 0.56,0.93c0,0.34 -0.25,0.47 -0.56,0.29l-15.38,-8.87a1.21,1.21 0 0 1 -0.56,-0.94c0,-0.35 0.25,-0.46 0.56,-0.28z"/>
   <path id="svg_162" fill="#407bff" d="m414.91,180.94l5.22,3a1.21,1.21 0 0 1 0.56,0.93c0,0.34 -0.25,0.47 -0.56,0.29l-5.22,-3a1.21,1.21 0 0 1 -0.56,-0.93c0,-0.34 0.25,-0.47 0.56,-0.29z"/>
   <path id="svg_163" opacity="0.6" fill="#fff" d="m414.91,180.94l5.22,3a1.21,1.21 0 0 1 0.56,0.93c0,0.34 -0.25,0.47 -0.56,0.29l-5.22,-3a1.21,1.21 0 0 1 -0.56,-0.93c0,-0.34 0.25,-0.47 0.56,-0.29z"/>
   <path id="svg_164" fill="#407bff" d="m414.91,185.82l5.22,3a1.21,1.21 0 0 1 0.56,0.94c0,0.33 -0.25,0.46 -0.56,0.28l-5.22,-3a1.18,1.18 0 0 1 -0.56,-0.93c0,-0.34 0.25,-0.47 0.56,-0.29z"/>
   <path id="svg_165" opacity="0.6" fill="#fff" d="m414.91,185.82l5.22,3a1.21,1.21 0 0 1 0.56,0.94c0,0.33 -0.25,0.46 -0.56,0.28l-5.22,-3a1.18,1.18 0 0 1 -0.56,-0.93c0,-0.34 0.25,-0.47 0.56,-0.29z"/>
   <path id="svg_166" fill="#407bff" d="m414.91,190.71l5.22,3a1.19,1.19 0 0 1 0.56,0.93c0,0.34 -0.25,0.47 -0.56,0.29l-5.22,-3a1.21,1.21 0 0 1 -0.56,-0.94c0,-0.34 0.25,-0.46 0.56,-0.28z"/>
   <path id="svg_167" opacity="0.6" fill="#fff" d="m414.91,190.71l5.22,3a1.21,1.21 0 0 1 0.56,0.94c0,0.34 -0.25,0.46 -0.56,0.28l-5.22,-3a1.21,1.21 0 0 1 -0.56,-0.94c0,-0.34 0.25,-0.46 0.56,-0.28z"/>
   <path id="svg_168" opacity="0.6" fill="#407bff" d="m423.37,195.59l15.38,8.87a1.21,1.21 0 0 1 0.56,0.94c0,0.33 -0.25,0.46 -0.56,0.28l-15.38,-8.87a1.21,1.21 0 0 1 -0.56,-0.94c0,-0.33 0.25,-0.46 0.56,-0.28zm17.56,10.13l6.69,3.88a1.18,1.18 0 0 1 0.56,0.93c0,0.34 -0.25,0.47 -0.56,0.29l-6.69,-3.88a1.21,1.21 0 0 1 -0.56,-0.93c0,-0.34 0.25,-0.47 0.56,-0.29z"/>
   <path id="svg_169" opacity="0.6" fill="#fff" d="m423.37,195.59l15.38,8.87a1.21,1.21 0 0 1 0.56,0.94c0,0.33 -0.25,0.46 -0.56,0.28l-15.38,-8.87a1.21,1.21 0 0 1 -0.56,-0.94c0,-0.33 0.25,-0.46 0.56,-0.28zm17.56,10.13l6.69,3.88a1.18,1.18 0 0 1 0.56,0.93c0,0.34 -0.25,0.47 -0.56,0.29l-6.69,-3.88a1.21,1.21 0 0 1 -0.56,-0.93c0,-0.34 0.25,-0.47 0.56,-0.29z"/>
   <path id="svg_170" fill="#407bff" d="m414.91,195.59l5.22,3a1.21,1.21 0 0 1 0.56,0.93c0,0.34 -0.25,0.47 -0.56,0.29l-5.22,-3a1.21,1.21 0 0 1 -0.56,-0.93c0,-0.34 0.25,-0.47 0.56,-0.29z"/>
   <path id="svg_171" opacity="0.6" fill="#fff" d="m414.91,195.59l5.22,3a1.21,1.21 0 0 1 0.56,0.93c0,0.34 -0.25,0.47 -0.56,0.29l-5.22,-3a1.21,1.21 0 0 1 -0.56,-0.93c0,-0.34 0.25,-0.47 0.56,-0.29z"/>
   <path id="svg_172" fill="#407bff" d="m432.47,186.2l6.69,3.87a1.21,1.21 0 0 1 0.56,0.94c0,0.33 -0.25,0.46 -0.56,0.28l-6.69,-3.87a1.21,1.21 0 0 1 -0.56,-0.94c0,-0.33 0.25,-0.48 0.56,-0.28z"/>
   <path id="svg_173" opacity="0.6" fill="#fff" d="m432.47,186.2l6.69,3.87a1.21,1.21 0 0 1 0.56,0.94c0,0.33 -0.25,0.46 -0.56,0.28l-6.69,-3.87a1.21,1.21 0 0 1 -0.56,-0.94c0,-0.33 0.25,-0.48 0.56,-0.28z"/>
   <path id="svg_174" fill="#fff" d="m429.71,209l15.38,8.87a1.22,1.22 0 0 1 0.57,0.94c0,0.34 -0.26,0.46 -0.57,0.29l-15.38,-8.88a1.21,1.21 0 0 1 -0.56,-0.93c0,-0.29 0.25,-0.46 0.56,-0.29zm8.88,10l15.41,8.91a1.22,1.22 0 0 1 0.57,0.94c0,0.33 -0.26,0.46 -0.57,0.28l-15.37,-8.87a1.2,1.2 0 0 1 -0.57,-0.94c-0.06,-0.32 0.21,-0.46 0.53,-0.32zm8.69,0.15l6.72,3.85a1.22,1.22 0 0 1 0.57,0.93c0,0.34 -0.26,0.47 -0.57,0.29l-6.68,-3.87a1.2,1.2 0 0 1 -0.57,-0.94c-0.04,-0.32 0.25,-0.41 0.53,-0.26z"/>
   <path id="svg_175" fill="#e6e6e6" d="m447.28,238.49l6.68,3.87a1.22,1.22 0 0 1 0.57,0.94c0,0.33 -0.26,0.46 -0.57,0.28l-6.68,-3.87a1.2,1.2 0 0 1 -0.57,-0.94c0,-0.33 0.29,-0.46 0.57,-0.28z"/>
   <path id="svg_176" fill="#407bff" d="m423.37,185.82l15.38,8.88a1.19,1.19 0 0 1 0.56,0.93c0,0.34 -0.25,0.47 -0.56,0.29l-15.38,-8.92a1.18,1.18 0 0 1 -0.56,-0.93c0,-0.3 0.25,-0.43 0.56,-0.25z"/>
   <path id="svg_177" opacity="0.6" fill="#fff" d="m423.37,185.82l15.38,8.88a1.19,1.19 0 0 1 0.56,0.93c0,0.34 -0.25,0.47 -0.56,0.29l-15.38,-8.92a1.18,1.18 0 0 1 -0.56,-0.93c0,-0.3 0.25,-0.43 0.56,-0.25z"/>
   <path id="svg_178" fill="#407bff" d="m440.93,196l6.69,3.87a1.21,1.21 0 0 1 0.56,0.94c0,0.33 -0.25,0.46 -0.56,0.28l-6.69,-3.87a1.21,1.21 0 0 1 -0.56,-0.94c0,-0.38 0.25,-0.5 0.56,-0.28z"/>
   <path id="svg_179" opacity="0.6" fill="#fff" d="m440.93,196l6.69,3.87a1.21,1.21 0 0 1 0.56,0.94c0,0.33 -0.25,0.46 -0.56,0.28l-6.69,-3.87a1.21,1.21 0 0 1 -0.56,-0.94c0,-0.38 0.25,-0.5 0.56,-0.28z"/>
  </g>
  <g id="svg_180">
   <path id="svg_181" opacity="0.15" d="m336.12,251.91l9.42,5.44a10.38,10.38 0 0 0 10.4,-0.55l15.55,-11.35c2.77,-2 2.61,-5 -0.36,-6.77l-4.72,-2.74a12.83,12.83 0 0 0 -10.93,-0.33l-19.19,10.39c-3.07,1.55 -3.15,4.19 -0.17,5.91z"/>
   <path id="svg_182" fill="#37474f" d="m371.74,240.51l-10.74,8.41l-7.94,6.21a7,7 0 0 1 -2.53,0.61a6.88,6.88 0 0 1 -3.77,-0.79l-8.43,-4.87l-0.05,0a6,6 0 0 1 -1.71,-8.53l0.25,-0.35a11.24,11.24 0 0 1 6.79,-4.3l4.27,-0.85c6.92,-1.41 12.59,-2.09 13.25,-1.64l10.57,6.12l0.04,-0.02z"/>
   <path id="svg_183" fill="#407bff" d="m365.73,245.22l0.61,-0.48l-9.49,-5.47l8.3,-2.57l-0.84,-0.49l-8.3,2.57l-5.66,-3.26l-1.07,0.2l16.45,9.5z"/>
   <path id="svg_184" fill="#263238" d="m354,254.62l7.56,-5.46l10.19,-7.36l0,-1.2a0.1,0.1 0 0 0 -0.05,-0.09l-0.06,0c-0.76,-0.26 -5.18,1.07 -10.52,3.19l-3.54,1.41a11.21,11.21 0 0 0 -7.1,10.47l0,0.18a7,7 0 0 0 2.53,-0.61l0.99,-0.53z"/>
  </g>
  <g id="svg_185">
   <path id="svg_186" fill="#407bff" d="m372.7,405.51c-10.38,-10.71 -16.47,-54.29 -6.35,-62.78l51.5,0c10.12,8.49 4,52.06 -6.34,62.77l-0.29,0.3c-0.11,0.12 -0.23,0.24 -0.35,0.35c-0.3,0.29 -0.61,0.57 -0.94,0.84l-0.25,0.2c-0.25,0.2 -0.5,0.4 -0.78,0.6a15.26,15.26 0 0 1 -1.34,0.87c-8.54,5 -22.38,5 -30.92,0c-0.45,-0.26 -0.9,-0.56 -1.35,-0.88c-0.26,-0.18 -0.49,-0.37 -0.73,-0.56l-0.3,-0.24a12.15,12.15 0 0 1 -0.91,-0.81c-0.14,-0.13 -0.28,-0.27 -0.41,-0.41a2.83,2.83 0 0 1 -0.24,-0.25z"/>
   <path id="svg_187" opacity="0.5" fill="#fff" d="m372.7,405.51c-10.38,-10.71 -16.47,-54.29 -6.35,-62.78l51.5,0c10.12,8.49 4,52.06 -6.34,62.77l-0.29,0.3c-0.11,0.12 -0.23,0.24 -0.35,0.35c-0.3,0.29 -0.61,0.57 -0.94,0.84l-0.25,0.2c-0.25,0.2 -0.5,0.4 -0.78,0.6a15.26,15.26 0 0 1 -1.34,0.87c-8.54,5 -22.38,5 -30.92,0c-0.45,-0.26 -0.9,-0.56 -1.35,-0.88c-0.26,-0.18 -0.49,-0.37 -0.73,-0.56l-0.3,-0.24a12.15,12.15 0 0 1 -0.91,-0.81c-0.14,-0.13 -0.28,-0.27 -0.41,-0.41a2.83,2.83 0 0 1 -0.24,-0.25z"/>
   <path id="svg_188" fill="#407bff" d="m413.38,339.31c11.75,6.86 11.75,18 0,24.85s-30.81,6.86 -42.56,0s-11.75,-18 0,-24.85s30.81,-6.86 42.56,0z"/>
   <path id="svg_189" opacity="0.7" fill="#fff" d="m413.38,339.31c11.75,6.86 11.75,18 0,24.85s-30.81,6.86 -42.56,0s-11.75,-18 0,-24.85s30.81,-6.86 42.56,0z"/>
   <path id="svg_190" fill="#407bff" d="m407.73,342.61c8.63,5 8.63,13.21 0,18.25s-22.63,5 -31.26,0s-8.63,-13.21 0,-18.25s22.63,-5.04 31.26,0z"/>
   <path id="svg_191" opacity="0.3" d="m407.73,342.61c8.63,5 8.63,13.21 0,18.25s-22.63,5 -31.26,0s-8.63,-13.21 0,-18.25s22.63,-5.04 31.26,0z"/>
   <path id="svg_192" fill="#f5f5f5" d="m376.47,351.27c8.63,-5 22.63,-5 31.26,0a14.36,14.36 0 0 1 5.16,4.79a14.38,14.38 0 0 1 -5.16,4.8c-8.63,5 -22.63,5 -31.26,0a14.5,14.5 0 0 1 -5.17,-4.8a14.48,14.48 0 0 1 5.17,-4.79z"/>
   <path id="svg_193" fill="#407bff" d="m387.88,329.28a14.43,14.43 0 0 1 -1.31,-3.76c-0.58,-3.14 0.2,-6.73 2.74,-8.67c1,-0.76 2.33,-1.33 2.76,-2.53a4.14,4.14 0 0 0 0,-2.07c-0.47,-2.68 -1.37,-5.44 -0.63,-8.05a9,9 0 0 1 5,-5.36a27,27 0 0 1 7.27,-1.9a11.77,11.77 0 0 0 3.85,-1.1c1.44,-0.81 1.89,-2.23 2.78,-3.48a24.3,24.3 0 0 1 3.54,-3.77c2.62,-2.34 5.9,-4.27 9.53,-4.11c7.58,0.33 7.36,6.85 5.18,11.79s-2.76,6.55 2,11.7s4.74,11.5 -0.91,15s-9.32,4 -7.08,10.86c2,6.11 3.23,11.32 -2.41,17.85c-3.65,4.22 -8.64,7.23 -14.88,7a25.12,25.12 0 0 1 -7.31,-1.68c-1.72,-0.85 -0.56,-2.18 -1.14,-3.88l-3.74,-10.92a81.09,81.09 0 0 0 -3,-8.62c-0.69,-1.5 -1.53,-2.87 -2.24,-4.3z"/>
   <path id="svg_194" opacity="0.25" d="m387.88,329.28a14.43,14.43 0 0 1 -1.31,-3.76c-0.58,-3.14 0.2,-6.73 2.74,-8.67c1,-0.76 2.33,-1.33 2.76,-2.53a4.14,4.14 0 0 0 0,-2.07c-0.47,-2.68 -1.37,-5.44 -0.63,-8.05a9,9 0 0 1 5,-5.36a27,27 0 0 1 7.27,-1.9a11.77,11.77 0 0 0 3.85,-1.1c1.44,-0.81 1.89,-2.23 2.78,-3.48a24.3,24.3 0 0 1 3.54,-3.77c2.62,-2.34 5.9,-4.27 9.53,-4.11c7.58,0.33 7.36,6.85 5.18,11.79s-2.76,6.55 2,11.7s4.74,11.5 -0.91,15s-9.32,4 -7.08,10.86c2,6.11 3.23,11.32 -2.41,17.85c-3.65,4.22 -8.64,7.23 -14.88,7a25.12,25.12 0 0 1 -7.31,-1.68c-1.72,-0.85 -0.56,-2.18 -1.14,-3.88l-3.74,-10.92a81.09,81.09 0 0 0 -3,-8.62c-0.69,-1.5 -1.53,-2.87 -2.24,-4.3z"/>
   <path id="svg_195" fill="#fff" d="m398.18,357a0.53,0.53 0 0 0 0.37,-0.53c-0.32,-37.42 20.31,-59.76 20.52,-60a0.58,0.58 0 0 0 0,-0.8a0.56,0.56 0 0 0 -0.79,0c-0.21,0.22 -21.14,22.87 -20.82,60.76a0.55,0.55 0 0 0 0.56,0.56l0.16,0.01z"/>
   <path id="svg_196" fill="#fff" d="m404.18,322.17l0.12,-0.05c6.71,-4.23 18.68,-7.38 18.8,-7.41a0.57,0.57 0 0 0 0.4,-0.69a0.55,0.55 0 0 0 -0.68,-0.4c-0.5,0.13 -12.26,3.22 -19.11,7.54a0.55,0.55 0 0 0 -0.18,0.77a0.55,0.55 0 0 0 0.65,0.24zm2.08,-5.17a0.57,0.57 0 0 0 0.31,-0.74a43.53,43.53 0 0 0 -6.19,-10.41a0.55,0.55 0 0 0 -0.79,-0.06a0.57,0.57 0 0 0 -0.06,0.79a42.89,42.89 0 0 1 6,10.11a0.55,0.55 0 0 0 0.73,0.31z"/>
   <path id="svg_197" fill="#407bff" d="m392.92,361a31.45,31.45 0 0 1 -16.43,0.6c-9.42,-2 -15.19,-10.84 -15.19,-10.84s10.2,-4.08 16.14,-4.48a52.62,52.62 0 0 0 -17.85,0.38s-5.46,-2 -4.43,-11.24c0,0 5.14,-3.79 17,-2.3c0,0 -5.92,-4.23 -16.31,-5.48c-0.82,0 0.29,-12 1.28,-17.35s3,-4.52 7.2,-4.06s16.81,3.32 18.4,6.4s0.05,10.94 0.05,10.94a18,18 0 0 0 3.46,-10.28s4.73,1.73 7.26,4a16.82,16.82 0 0 1 4.52,5.66c-0.59,4.21 -2.57,10.64 -5.35,14.23c0,0 6.26,-4.05 7.69,-11.49a26,26 0 0 1 5,14.65c-0.14,9.41 -4.36,16.4 -12.44,20.66z"/>
   <path id="svg_198" opacity="0.1" d="m392.92,361a31.45,31.45 0 0 1 -16.43,0.6c-9.42,-2 -15.19,-10.84 -15.19,-10.84s10.2,-4.08 16.14,-4.48a52.62,52.62 0 0 0 -17.85,0.38s-5.46,-2 -4.43,-11.24c0,0 5.14,-3.79 17,-2.3c0,0 -5.92,-4.23 -16.31,-5.48c-0.82,0 0.29,-12 1.28,-17.35s3,-4.52 7.2,-4.06s16.81,3.32 18.4,6.4s0.05,10.94 0.05,10.94a18,18 0 0 0 3.46,-10.28s4.73,1.73 7.26,4a16.82,16.82 0 0 1 4.52,5.66c-0.59,4.21 -2.57,10.64 -5.35,14.23c0,0 6.26,-4.05 7.69,-11.49a26,26 0 0 1 5,14.65c-0.14,9.41 -4.36,16.4 -12.44,20.66z"/>
   <path id="svg_199" fill="#fff" d="m394.17,360.19a0.52,0.52 0 0 1 -0.34,-0.46c-1.43,-17.86 -21.41,-45.75 -30.24,-51.35a0.56,0.56 0 0 1 -0.17,-0.75a0.55,0.55 0 0 1 0.74,-0.17c9,5.69 29.29,34 30.73,52.18a0.53,0.53 0 0 1 -0.49,0.58a0.45,0.45 0 0 1 -0.23,-0.03z"/>
  </g>
  <g id="svg_200">
   <path id="svg_201" fill="#ffa8a7" d="m213.49,349c0,-0.2 -3.21,-11.8 -3.21,-11.8s1.05,1.07 7.75,-0.7a38,38 0 0 0 7.29,-3.06l1.91,8.48c1.79,3.26 7.71,1.76 14.19,1c1.09,-0.13 2.21,-0.31 3.33,-0.5l0.07,0c3.5,-0.19 7,1.91 3.38,4.9s-9.65,4.11 -15.18,5.11c-6.66,1.25 -18.34,3.2 -19.53,-3.43z"/>
   <path id="svg_202" fill="#263238" d="m260,348a6.79,6.79 0 0 1 0.48,3.56c-0.12,1.29 -3.32,5.67 -9,8.36s-12.62,2.86 -15.88,3.8s-6.26,2.81 -10.11,3.75s-7.66,1.44 -11.52,-1.11c-0.71,-1.09 -1.49,-3.62 -1.27,-3.87c0.7,-0.66 47.3,-14.49 47.3,-14.49z"/>
   <path id="svg_203" fill="#407bff" d="m228.25,343.08c2.48,1.71 7.62,0.52 13.17,-0.11c5.24,-0.6 11.13,-2.44 14.69,-1.2s6.53,5.42 1.72,10.79c-1.39,1.55 -4.33,4.28 -6.69,5.13c-6,2.14 -11.34,2.31 -15.18,3.26c-5,1.23 -7.74,3.45 -12.36,4c-6,0.7 -9.78,-0.84 -10.82,-2.44s-2,-14.49 0.57,-14.22c0,0 1.08,4.17 10.87,0.12c4.27,-1.79 4.2,-4.41 4.03,-5.33z"/>
   <path id="svg_204" opacity="0.4" d="m228.25,343.08c2.48,1.71 7.62,0.52 13.17,-0.11c5.24,-0.6 11.13,-2.44 14.69,-1.2s6.53,5.42 1.72,10.79c-1.39,1.55 -4.33,4.28 -6.69,5.13c-6,2.14 -11.34,2.31 -15.18,3.26c-5,1.23 -7.74,3.45 -12.36,4c-6,0.7 -9.78,-0.84 -10.82,-2.44s-2,-14.49 0.57,-14.22c0,0 1.08,4.17 10.87,0.12c4.27,-1.79 4.2,-4.41 4.03,-5.33z"/>
   <path id="svg_205" fill="#fafafa" d="m244.85,350s-0.56,-5.44 -4.58,-6.88a2.11,2.11 0 0 0 -2.22,0.29s3.73,0.54 5,6.93c0,0 0.19,0.42 1,0.27c0.24,-0.06 0.84,-0.17 0.8,-0.61zm-10.23,-6.18s0,-0.18 0.94,-0.35a1.68,1.68 0 0 1 1.11,0.12s3,1.3 3.56,7c0,0 0,0.68 -0.93,0.87a0.82,0.82 0 0 1 -1.07,-0.56s-0.62,-5.99 -3.61,-7.08zm-3.22,0.12s0.17,-0.34 0.87,-0.34c0.89,0 1.1,0.35 1.1,0.35s2.14,2.19 2.16,6.95c0,0 0.09,0.8 -1,0.88s-1,-0.82 -1,-0.82s-0.38,-6.06 -2.13,-7.02z"/>
   <path id="svg_206" fill="#37474f" d="m209.35,270.2c4.9,14.73 17.9,65.45 17.9,65.45s-8.46,7.6 -17.64,4.14l-21.87,-63.16l21.61,-6.43z"/>
   <path id="svg_207" fill="#ffa8a7" d="m247.14,365.4c-1,-1.49 -4.76,-11.8 -4.76,-11.8s3.92,2.24 10.67,0.64c3.43,-0.82 6.64,-4.54 6.64,-4.54l2.88,9.91c1.7,3.31 7.21,2.22 13.71,1.64c1.09,-0.1 2.21,-0.26 3.34,-0.42l0.07,0c3.5,-0.1 7,2.08 3.25,5s-9.74,3.88 -15.3,4.74c-6.64,1.01 -16.75,0.43 -20.5,-5.17z"/>
   <path id="svg_208" fill="#263238" d="m297.56,365.09a7.31,7.31 0 0 1 0.43,3.84c-0.17,1.38 -3.72,6 -9.84,8.73s-13.63,2.74 -17.16,3.66s-6.79,2.86 -10.95,3.77s-8.26,1.33 -12.33,-1.49c-0.74,-1.2 -1.52,-3.94 -1.26,-4.2c0.67,-0.69 51.11,-14.31 51.11,-14.31z"/>
   <path id="svg_209" fill="#407bff" d="m263.63,358.87a10.44,10.44 0 0 0 1.23,0.76a3.67,3.67 0 0 0 1.36,0.28a18.9,18.9 0 0 0 3.28,0.08c2.74,-0.13 5.47,-0.55 8.21,-0.79c5.63,-0.5 12,-2.32 15.79,-0.9s7.25,6 1.94,11.61a26,26 0 0 1 -7.1,5.39c-6.29,2.63 -12.82,2.14 -17,3.06c-5.4,1.19 -8.4,3.5 -13.38,3.95c-6.45,0.59 -10.47,-1.16 -11.54,-2.91c-0.6,-1 0.06,-6 -0.74,-9.95c-0.7,-3.38 -0.52,-5.68 0.7,-5.53a6,6 0 0 0 0.94,1.2a4.51,4.51 0 0 0 1.43,1.13a11.29,11.29 0 0 0 2.42,0.81a14.29,14.29 0 0 0 4.49,0.62a2.18,2.18 0 0 0 1.22,-0.39a2.57,2.57 0 0 0 0.71,-1.52c0.1,-0.5 0.21,-1 0.31,-1.5a2.1,2.1 0 0 1 0.28,-0.77a2,2 0 0 1 0.76,-0.61a6.56,6.56 0 0 0 2.46,-1.87a5.78,5.78 0 0 0 0.72,-2.32a0.57,0.57 0 0 1 0.16,-0.38c0.18,-0.14 0.45,0 0.65,0.11l0.7,0.44z"/>
   <path id="svg_210" opacity="0.4" d="m263.63,358.87a10.44,10.44 0 0 0 1.23,0.76a3.67,3.67 0 0 0 1.36,0.28a18.9,18.9 0 0 0 3.28,0.08c2.74,-0.13 5.47,-0.55 8.21,-0.79c5.63,-0.5 12,-2.32 15.79,-0.9s7.25,6 1.94,11.61a26,26 0 0 1 -7.1,5.39c-6.29,2.63 -12.82,2.14 -17,3.06c-5.4,1.19 -8.4,3.5 -13.38,3.95c-6.45,0.59 -10.47,-1.16 -11.54,-2.91c-0.6,-1 0.06,-6 -0.74,-9.95c-0.7,-3.38 -0.52,-5.68 0.7,-5.53a6,6 0 0 0 0.94,1.2a4.51,4.51 0 0 0 1.43,1.13a11.29,11.29 0 0 0 2.42,0.81a14.29,14.29 0 0 0 4.49,0.62a2.18,2.18 0 0 0 1.22,-0.39a2.57,2.57 0 0 0 0.71,-1.52c0.1,-0.5 0.21,-1 0.31,-1.5a2.1,2.1 0 0 1 0.28,-0.77a2,2 0 0 1 0.76,-0.61a6.56,6.56 0 0 0 2.46,-1.87a5.78,5.78 0 0 0 0.72,-2.32a0.57,0.57 0 0 1 0.16,-0.38c0.18,-0.14 0.45,0 0.65,0.11l0.7,0.44z"/>
   <path id="svg_211" fill="#fafafa" d="m281.2,366.83s-0.46,-5.86 -4.74,-7.51a2.28,2.28 0 0 0 -2.39,0.25s4,0.68 5.14,7.57c0,0 0.2,0.46 1.08,0.32c0.29,-0.04 0.94,-0.14 0.91,-0.63zm-10.82,-6.89s0,-0.2 1,-0.36a1.78,1.78 0 0 1 1.18,0.16s3.19,1.47 3.64,7.6c0,0 0,0.73 -1,0.91a0.89,0.89 0 0 1 -1.14,-0.63s-0.49,-6.44 -3.68,-7.68zm-3.46,0.06s0.19,-0.36 0.95,-0.34c0.95,0 1.16,0.4 1.16,0.4s2.24,2.41 2.14,7.51c0,0 0.08,0.87 -1.13,0.93s-1,-0.91 -1,-0.91s-0.26,-6.54 -2.12,-7.59z"/>
   <path id="svg_212" fill="#455a64" d="m243.84,287.59c3.86,11.87 13.72,45.66 18.22,63c0,0 -8.09,7.28 -18.5,6.64l-25.09,-65.06l10,-6.18l15.37,1.6zm-82.61,162.41a1.63,1.63 0 0 0 1.63,-1.63l0,-104.56a1.63,1.63 0 0 0 -3.26,0l0,104.59a1.63,1.63 0 0 0 1.63,1.6zm-64.71,-38a1.62,1.62 0 0 0 1.51,-1l32.07,-81.18a1.62,1.62 0 1 0 -3,-1.19l-32.1,81.1a1.63,1.63 0 0 0 0.91,2.11a1.61,1.61 0 0 0 0.61,0.16z"/>
   <path id="svg_213" fill="#455a64" d="m100.37,402.21a1.61,1.61 0 0 0 1.18,-0.51l59.68,-63.15l59.57,62.88a1.63,1.63 0 0 0 2.36,-2.24l-60.75,-64.13a1.64,1.64 0 0 0 -1.18,-0.51a1.63,1.63 0 0 0 -1.18,0.51l-60.86,64.4a1.63,1.63 0 0 0 1.18,2.75z"/>
   <path id="svg_214" fill="#455a64" d="m225.94,412a1.61,1.61 0 0 0 0.6,-0.12a1.63,1.63 0 0 0 0.91,-2.11l-32.07,-81.17a1.63,1.63 0 1 0 -3,1.19l32.08,81.18a1.62,1.62 0 0 0 1.48,1.03z"/>
   <path id="svg_215" fill="#407bff" d="m226.72,307.94c1.17,-6.56 -4.17,-11.68 -14.23,-18.47a238.45,238.45 0 0 0 -29.13,-16.37c-8.42,-3.86 -17,-3.5 -27.79,2c-15,7.69 -60,35 -60,35s67.32,38 80.27,36.3s45.32,-22.76 47.89,-30.17s2.99,-8.29 2.99,-8.29z"/>
   <path id="svg_216" opacity="0.4" d="m226.72,307.94c1.17,-6.56 -4.17,-11.68 -14.23,-18.47a238.45,238.45 0 0 0 -29.13,-16.37c-8.42,-3.86 -17,-3.5 -27.79,2c-15,7.69 -60,35 -60,35s67.32,38 80.27,36.3s45.32,-22.76 47.89,-30.17s2.99,-8.29 2.99,-8.29z"/>
   <path id="svg_217" fill="#407bff" d="m169.35,338.43c9.66,8.75 19.76,1.22 35.74,-9.15c18.09,-11.73 21.63,-21.34 21.63,-21.34s0,7.2 -1.35,10.57s-4.27,7.2 -17.31,16.19s-22.49,13.49 -31.26,15.16l-6.92,-0.95"/>
   <path id="svg_218" opacity="0.5" d="m205.09,329.28c18.09,-11.73 21.63,-21.34 21.63,-21.34s0,7.2 -1.35,10.57s-4.27,7.2 -17.31,16.19s-22.49,13.49 -31.26,15.16l-6.92,-0.95l-0.53,-10.48c9.65,8.75 19.76,1.22 35.74,-9.15z"/>
   <path id="svg_219" fill="#407bff" d="m99,399.22l-5,11.42a1.59,1.59 0 0 0 -0.06,0.3a1.34,1.34 0 0 0 0,0.21a1.41,1.41 0 0 0 0.63,0.76a3,3 0 0 0 2.68,0.13a1.18,1.18 0 0 0 0.55,-0.53l0,-0.15l4.6,-10.71l-3.4,-1.43zm124.73,0.48l4.27,11.19a1.35,1.35 0 0 1 0,0.29l0,0.2a1.31,1.31 0 0 1 -0.64,0.7a2.8,2.8 0 0 1 -2.58,0a1.15,1.15 0 0 1 -0.51,-0.52l0,-0.16l-3.93,-10.49l3.39,-1.21zm-64.38,40.6l0,9.26a1,1 0 0 0 0.55,0.76a2.9,2.9 0 0 0 2.66,0a0.93,0.93 0 0 0 0.54,-0.76l0,-9.26a4,4 0 0 0 -3.75,0z"/>
   <path id="svg_220" fill="#37474f" d="m122.54,268.72c3.83,4.47 38.72,-5.57 48,-6.83c14.9,-2 27,-3.51 32.1,-1.92s7.21,4.17 8.76,10.23c1.83,7.14 2.77,10.79 2.77,10.79s-24.76,9.5 -44.3,11.79s-47.33,-24.06 -47.33,-24.06z"/>
   <path id="svg_221" fill="#455a64" d="m116,275.27c-3.87,14.74 -7.34,31.88 1.61,41.26c6,6.32 36.31,22.74 55.85,16.27c19.24,-6.37 59.1,-36 63.1,-38.93s7.63,-5 7.25,-6.28c-5.37,-17.84 -13.23,-19.24 -27.79,-16c-17.82,3.92 -56.92,19.87 -56.92,19.87l-43.1,-16.19z"/>
   <path id="svg_222" d="m204.52,180.52l-13.44,15.19l-21.7,-10.3l15.17,-20.99l19.97,16.1z" fill="#ffa8a7"/>
   <path id="svg_223" fill="#f28f8f" d="m221.19,151.66s5.5,7.94 4.91,8.75s-4.48,1.61 -4.48,1.61l-0.43,-10.36z"/>
   <path id="svg_224" fill="#263238" d="m221.15,156.91a6.58,6.58 0 1 1 6.58,-6.58a6.59,6.59 0 0 1 -6.58,6.58zm0,-11.95a5.37,5.37 0 1 0 5.37,5.37a5.38,5.38 0 0 0 -5.37,-5.33l0,-0.04z"/>
   <path id="svg_225" fill="#ffa8a7" d="m205.92,129.68c10.81,2 14,6.68 15.43,23.75c1.46,17.83 -0.23,23.49 -2.52,25.94c-1.55,1.66 -10.34,2.16 -14.81,1c-5.59,-1.41 -18.25,-5.57 -24.33,-14.42c-7.16,-10.41 -9.31,-24.69 -2,-30.73c10.2,-8.47 23.83,-6.36 28.23,-5.54z"/>
   <path id="svg_226" fill="#f28f8f" d="m204.52,180.52c4.65,1 11.73,0.41 13.83,-0.79a16,16 0 0 1 -7.83,-0.29a25.61,25.61 0 0 1 -7.17,-3.16l1.17,4.24z"/>
   <path id="svg_227" fill="#263238" d="m223.35,136.67c-3,2.08 -6.7,2.94 -10.32,3.51c0.28,2.89 -0.63,5.75 -1.53,8.52c-0.62,1.91 -2.87,7.92 -5.32,4.62c-1.77,-2.38 -3.37,-4.55 -6.76,-4c-5.58,1 -6.17,8.11 -2.54,12.37s6.88,2.52 6.88,2.52s0.51,7.69 -3.55,13.13c0,0 -6.05,3.72 -14.55,0.92c-5.36,-1.77 -13.1,-8.53 -15.95,-13.81c-7.85,-14.52 -7.89,-28.44 1.63,-32.72c0.88,-7 6.27,-10.2 12.46,-11.77c8.59,-2.18 17.51,3.21 25.81,-0.35c1.75,-0.75 3.36,-1.81 5.15,-2.46a3.56,3.56 0 0 1 3.09,0a3.76,3.76 0 0 1 1.32,2.36a6.62,6.62 0 0 1 -0.33,5a15,15 0 0 1 3.91,-1.44a4.9,4.9 0 0 1 3.94,0.89a5.07,5.07 0 0 1 1.58,3.44c0.31,3.67 -1.92,7.18 -4.92,9.27z"/>
   <path id="svg_228" fill="#263238" d="m171.19,134.12l-6.52,-3.65a3.74,3.74 0 1 1 6.52,3.65zm34.862,18.727l20.9,-3.9l0.188,1.013l-20.9,3.9l-0.188,-1.013z"/>
   <path id="svg_229" fill="#ffa8a7" d="m249.86,189.4c-0.56,-0.94 -1.81,-1.13 -2.85,-1.49c-1.92,-0.67 -3.42,-2.2 -5.27,-3a10.4,10.4 0 0 0 -6.66,-0.45a16.88,16.88 0 0 0 -2.22,0.71a27.94,27.94 0 0 0 -4,2c-5.3,3.13 -9.28,10.22 -14.49,13.47c-1.94,1.21 -3.75,2.31 -5.54,3.41l12.47,11.05a74.46,74.46 0 0 1 6.14,-4.67c3.06,-1.82 6.15,-1.86 9.59,-2.36a47.58,47.58 0 0 0 7,-1.75a3.09,3.09 0 0 0 2.07,-1.35a2.08,2.08 0 0 0 -1.34,-2.56a18,18 0 0 0 -3.63,-0.5c-0.9,-0.14 -3.3,0.39 -3.83,-0.51c-0.28,-0.48 0.07,-1.06 0.41,-1.49c2.16,-2.69 4.89,-5.57 8.34,-6.38a7.24,7.24 0 0 0 3,-1.21a2.39,2.39 0 0 0 0.81,-2.92z"/>
   <path id="svg_230" fill="#407bff" d="m175.47,177c-13.21,-7.21 -25.24,-2.58 -29.57,6.69c-3.93,8.39 -12.17,40.85 -12.17,40.85c3.96,7.46 41.74,-47.54 41.74,-47.54z"/>
   <path id="svg_231" fill="#407bff" d="m173.49,179.6l2,-2.61c-14.92,-7.08 -28.27,2.22 -40,20.52c-12.68,19.72 -19.33,48 -19.39,77.91c0,0 2.53,13.43 19.49,20.14c18,7.13 43.11,4.11 50.94,-14.55c0,0 0.16,-18.63 5.82,-27.81c3.67,-5.94 12.22,-19.13 18.58,-28.6c5.54,-8.24 9.85,-27 -1.72,-33.85a98.25,98.25 0 0 0 -9.41,-4.8c-10.58,3.48 -27.67,-2.17 -26.31,-6.35z"/>
   <path id="svg_232" opacity="0.75" fill="#fff" d="m173.53,179.67l1.94,-2.68c-14.92,-7.08 -28.27,2.22 -40,20.52c-12.68,19.72 -19.33,48 -19.39,77.91c0,0 2.53,13.43 19.49,20.14c18,7.13 43.11,4.11 50.94,-14.55c0,0 0.16,-18.63 5.82,-27.81c3.67,-5.94 12.22,-19.13 18.58,-28.6c5.54,-8.24 9.85,-27 -1.72,-33.85a98.25,98.25 0 0 0 -9.41,-4.8c-10.56,3.48 -27.61,-2.1 -26.25,-6.28z"/>
   <path id="svg_233" opacity="0.1" fill="#407bff" d="m215.7,212.65a30.2,30.2 0 0 0 0.46,-10.86a58,58 0 0 1 -11.26,17.21c-6.07,6.39 -13.56,11.37 -19.19,18.15c-6,7.18 -10.25,15.87 -15.25,23.71c-2,3.15 -4.74,9.22 -8.46,9.47c-4.54,0.29 -8.88,-5.24 -11.35,-9.06c-4,-6.08 -7.34,-13.69 -12.25,-19c-4.29,-4.67 -10.93,-10.65 -16.77,-7.94c-0.44,1.55 -0.85,3.12 -1.24,4.7s-0.75,3.22 -1.09,4.83l0,0.19c-0.33,1.62 -0.64,3.25 -0.93,4.88a2,2 0 0 1 0,0.26q-0.42,2.43 -0.75,4.86a157.64,157.64 0 0 0 -1.49,21.41s2.53,13.43 19.49,20.14c18,7.13 43.11,4.11 50.94,-14.55c0,0 0.16,-18.63 5.82,-27.81c0.57,-0.92 1.27,-2 2,-3.27l0.13,-0.21c0.65,-1 1.35,-2.13 2.11,-3.31c0,-0.07 0.09,-0.14 0.14,-0.21a0.41,0.41 0 0 1 0,-0.09c1.62,-2.53 3.44,-5.33 5.32,-8.22l0.85,-1.31c1.82,-2.78 3.67,-5.59 5.43,-8.24c0.59,-0.89 1.17,-1.76 1.75,-2.61c0.24,-0.37 0.49,-0.73 0.72,-1.09c0.2,-0.29 0.4,-0.61 0.59,-0.93l0.18,-0.3l0.42,-0.74l0.18,-0.34l0.45,-0.88a2.4,2.4 0 0 1 0.11,-0.23c0.19,-0.39 0.37,-0.79 0.55,-1.2l0,-0.12c0.16,-0.38 0.32,-0.76 0.47,-1.14c0,-0.1 0.07,-0.19 0.1,-0.28c0.14,-0.37 0.28,-0.74 0.41,-1.11l0,-0.22c0.24,-0.69 0.46,-1.41 0.66,-2.13c0.2,-0.73 0.38,-1.47 0.54,-2.21l0,-0.09l0.21,-0.11z"/>
   <path id="svg_234" fill="#ffa8a7" d="m284.89,230.8a27.57,27.57 0 0 1 -3.1,3.2c-4.56,4.13 -9.89,6.12 -16.09,10.14c-5,3.25 -12.73,8 -19.24,12.05a97.27,97.27 0 0 1 -21,9.68c-6,1.78 -9.43,1.85 -13,-7.83c-1.75,-4.75 -3.14,-9.63 -4.66,-14.46q-3.37,-10.79 -6.64,-21.61s-8,-19.83 10,-29.79c7.83,4.48 10.81,6.29 13.27,15.67c2.94,11.23 7.7,33.39 7.7,33.39a156.74,156.74 0 0 0 18.59,-7.92c2.28,-1.13 5.09,-1.92 6.72,-3.95a30.18,30.18 0 0 0 2.86,-4.46c0.77,-1.38 1.32,-2.88 2.17,-4.2a37.21,37.21 0 0 1 5.91,-6.51a2.43,2.43 0 0 1 1.43,-0.85a1.66,1.66 0 0 1 1.45,0.88c0.66,1.16 0.05,2.29 -0.29,3.47c-0.39,1.35 -0.78,2.7 -1.16,4a35.25,35.25 0 0 0 11.47,-10.7a5.87,5.87 0 0 1 0.9,-1.14a1.74,1.74 0 0 1 1.34,-0.49c1.2,0.15 2.39,2.09 2.45,3.2a18.23,18.23 0 0 0 0.09,3.39c0.27,1 1,1.9 1.31,2.92a17,17 0 0 1 0.68,3.24a11.1,11.1 0 0 1 -1.82,6.79a16,16 0 0 1 -1.34,1.89z"/>
   <path id="svg_235" fill="#407bff" d="m210.08,191.35c6.85,2.77 11.79,5.9 14.91,16.36s6.52,27.29 6.52,27.29s0.06,3.51 -8.26,8.42a20.48,20.48 0 0 1 -16.11,2.17l-6.28,-20.2s-11.14,-27.06 9.22,-34.04zm-40.2,157.56c-5.5,-0.28 -9.81,-4.32 -22.89,-9.77c-24.16,-10.07 -42.28,-18.14 -49.19,-30.78s-11.79,-49.18 -10.06,-65a20.35,20.35 0 0 1 1.18,-5.24l-1.7,-0.25l4.4,-3.75c4.52,-3.68 11.86,-0.4 17.4,2.62c15.82,8.6 28.19,17 38,47.17c7.35,22.71 12.2,43.43 22.36,54.51"/>
   <path id="svg_236" opacity="0.3" d="m88.92,238.12l-1.7,-0.25l4.4,-3.75c4.52,-3.68 11.86,-0.4 17.4,2.62c15.82,8.6 28.19,17 38,47.17c7.35,22.71 12.2,43.43 22.36,54.51l0.53,10.48c-5.5,-0.28 -9.81,-4.32 -22.89,-9.77c-24.19,-10.06 -42.31,-18.13 -49.22,-30.77s-11.79,-49.18 -10.06,-65a20.78,20.78 0 0 1 1.18,-5.24z"/>
   <path id="svg_237" fill="#407bff" d="m104.44,240.64c15.81,8.6 28.18,17 38,47.17s15.13,56.88 34.4,62.05c0,0 -8.71,3.47 -35.41,-7.83c-8.5,-3.59 -18.81,-10.14 -25.58,-13.94c-13.27,-7.45 -21.32,-13.55 -22.59,-15.84c-7,-12.59 -11.79,-49.18 -10.07,-65s13.32,-10.93 21.25,-6.61z"/>
  </g>
  <g id="svg_238">
   <path id="svg_239" fill="#407bff" d="m193.34,106.69l-4.34,-8.21l3.51,-10.15l0,-6.21l-10.75,6.21l0,6.21l4.62,8a0.62,0.62 0 0 0 0.32,0.28l6.64,3.87z"/>
   <path id="svg_240" opacity="0.2" d="m193.34,106.69l-4.34,-8.21l3.51,-10.15l0,-6.21l-10.75,6.21l0,6.21l4.62,8a0.62,0.62 0 0 0 0.32,0.28l6.64,3.87z"/>
   <path id="svg_241" fill="#407bff" d="m219,32.75a7.14,7.14 0 0 0 -3.23,-5.59l-2.62,-1.51a7.12,7.12 0 0 0 -6.45,0l-40.25,23.29a7.13,7.13 0 0 0 -3.22,5.59l0,44.31a7.13,7.13 0 0 0 3.22,5.58l2.63,1.52a7.12,7.12 0 0 0 6.45,0l12.95,-7.48l4.62,8a0.68,0.68 0 0 0 1.24,-0.12l4.88,-14.08l16.58,-9.6a7.14,7.14 0 0 0 3.2,-5.6l0,-44.31z"/>
   <path id="svg_242" opacity="0.2" d="m163.23,98.84a7.13,7.13 0 0 0 3.22,5.58l2.63,1.52a7.21,7.21 0 0 0 5.9,0.26c-1.52,0.57 -2.68,-0.28 -2.68,-2.12l0,-44.31a6.64,6.64 0 0 1 0.95,-3.18l-9.08,-5.24a6.62,6.62 0 0 0 -0.94,3.18l0,44.31z"/>
   <path id="svg_243" opacity="0.5" fill="#fff" d="m218.92,31.83c-0.37,-1.37 -1.62,-1.8 -3.11,-0.95l-40.28,23.3a6.37,6.37 0 0 0 -2.27,2.41l-9.08,-5.24a6.58,6.58 0 0 1 2.27,-2.4l40.27,-23.3a7.12,7.12 0 0 1 6.45,0l2.64,1.52a7.08,7.08 0 0 1 3.11,4.66z"/>
   <g id="svg_244" fill="#fff">
    <path id="svg_245" d="m178.23,77.16a2.36,2.36 0 0 1 0.16,-0.92a7,7 0 0 1 0.47,-0.86l8.76,-14.15a0.66,0.66 0 0 1 0.14,-0.17l0.1,-0.07a0.24,0.24 0 0 1 0.32,0a0.58,0.58 0 0 1 0.14,0.43l0,5.46a2.34,2.34 0 0 1 -0.26,1.14a7.16,7.16 0 0 1 -0.44,0.75l-4.52,6.88l4.52,2.08a1.92,1.92 0 0 1 0.44,0.21c0.17,0.11 0.26,0.39 0.26,0.83l0,3.88a1.3,1.3 0 0 1 -0.14,0.58a0.83,0.83 0 0 1 -0.32,0.4l-0.1,0a0.23,0.23 0 0 1 -0.14,0l-8.76,-4a1.18,1.18 0 0 1 -0.47,-0.32a1.17,1.17 0 0 1 -0.16,-0.73l0,-1.42zm19.08,-21.86a5.6,5.6 0 0 1 0.33,-0.88a1.59,1.59 0 0 1 0.64,-0.69l2.93,-1.73a0.26,0.26 0 0 1 0.34,0a0.61,0.61 0 0 1 0.14,0.44a1.47,1.47 0 0 1 0,0.33l-7.4,31.54a4.25,4.25 0 0 1 -0.31,0.85a1.59,1.59 0 0 1 -0.65,0.71l-2.87,1.66a0.26,0.26 0 0 1 -0.34,0a0.56,0.56 0 0 1 -0.14,-0.44a1.33,1.33 0 0 1 0,-0.32l7.33,-31.47zm16.09,5.1a2.3,2.3 0 0 1 -0.16,0.92a7,7 0 0 1 -0.47,0.86l-8.77,14.16a1.31,1.31 0 0 1 -0.14,0.16l-0.1,0.08a0.25,0.25 0 0 1 -0.33,0a0.55,0.55 0 0 1 -0.13,-0.43l0,-5.48a2.24,2.24 0 0 1 0.25,-1.12c0.17,-0.3 0.32,-0.54 0.45,-0.73l3.83,-5.92l-3.83,-1.46a1.6,1.6 0 0 1 -0.45,-0.23c-0.17,-0.12 -0.25,-0.4 -0.25,-0.85l0,-5.46a1.33,1.33 0 0 1 0.13,-0.58a0.93,0.93 0 0 1 0.33,-0.39l0.24,0l8.76,4a0.87,0.87 0 0 1 0.63,1l0.01,1.47z"/>
   </g>
  </g>
  <text font-weight="bold" stroke="null" transform="matrix(0.8886957224062115,0,0,0.8404045866258514,-23.813047015044695,7.638483566682449) " xml:space="preserve" text-anchor="start" font-family="Helvetica, Arial, sans-serif" font-size="24" id="svg_266" y="186.30539" x="102.79547" stroke-width="0" fill="#f0f0f0">JS</text>
  <text font-weight="bold" stroke="null" transform="matrix(0.8886957224062115,0,0,0.8404045866258514,-23.813047015044695,7.638483566682449) " xml:space="preserve" text-anchor="start" font-family="Helvetica, Arial, sans-serif" font-size="24" id="svg_267" y="82.78382" x="84.79156" stroke-width="0" fill="#f0f0f0">HTML</text>
  <text font-weight="bold" stroke="null" transform="matrix(0.8886957224062115,0,0,0.8404045866258514,-23.813047015044695,7.638483566682449) " xml:space="preserve" text-anchor="start" font-family="Helvetica, Arial, sans-serif" font-size="24" id="svg_268" y="136.32946" x="93.79351" stroke-width="0" fill="#f0f0f0">CSS</text>
 </g>
</svg>