<svg xmlns="http://www.w3.org/2000/svg" xmlns:xlink="http://www.w3.org/1999/xlink" width="231" height="65"><defs><path id="A" d="M0 0h27.04v34.765H0z"/><linearGradient x1="50%" y1="0%" x2="50%" y2="100%" id="B"><stop stop-color="#9a68fc" offset="0%"/><stop stop-color="#625e98" offset="100%"/></linearGradient></defs><g fill="none" fill-rule="evenodd"><g transform="translate(74.28 15.217)"><mask id="C" fill="#fff"><use xlink:href="#A"/></mask><g fill="#625e94"><path d="M6.182 29.356h9.27c1.627 0 3.13-.434 4.054-1.288s1.35-2.223 1.35-3.734c0-1.372-.428-2.328-1.34-3.242s-2.424-1.78-4.066-1.78h-9.27v10.044zm0-14.677h9.27c1.492 0 2.65-.737 3.506-1.567s1.13-1.747 1.13-3.068c0-1.34-.276-2.586-1.13-3.422-.857-.842-2.032-1.26-3.527-1.26l-9.25.045v9.27zM0 34.765V0h16.67c3.026 0 5.397.84 7.116 2.517s2.48 3.826 2.48 6.367c0 2.1-.47 3.82-1.612 5.244s-2.547 2.313-4.216 2.67c1.828.288 3.38 1.256 4.66 2.895 1.276 1.645 1.942 3.296 1.942 5.415 0 2.76-.896 5.244-2.64 6.988s-4.168 2.62-7.272 2.62L0 34.765z" mask="url(#C)"/><path d="M54.996 13.4V8.64h4.134V1.518h5.508V8.64h4.132v4.75h-4.132v13.46c0 .887.363 1.82.788 2.373s1.273.614 2.033.614a3.89 3.89 0 0 0 1.423-.267c.455-.18.794-.387 1.014-.63l1.294 4.14c-1.133 1.1-2.992 1.686-5.294 1.686-2.097 0-3.8-.6-4.892-1.73S59.13 30.53 59.13 28.43V13.4h-4.134zm21.188 11.087c1.298 1.366 3 2.865 4.858 3.737a12.76 12.76 0 0 0 5.786 1.306c2.28 0 3.94-.455 5.08-1.372s1.712-2 1.712-3.25a3.02 3.02 0 0 0-.688-1.978c-.457-.56-1.07-1.02-1.835-1.372a16.82 16.82 0 0 0-2.64-.938l-2.764-.85-3.304-.902a16.58 16.58 0 0 1-3.154-1.205c-.994-.5-1.87-1.085-2.634-1.75s-1.38-1.513-1.835-2.55a8.74 8.74 0 0 1-.745-3.545c0-2.802 1.2-5.136 3.514-7.006S82.832 0 86.5 0c5.28 0 9.402 1.534 12.68 4.635L96 8.75c-1.283-1.267-2.84-1.92-4.566-2.57s-3.57-1-5.42-1c-1.748 0-3.16.384-4.217 1.15s-1.586 1.8-1.586 3.062a2.55 2.55 0 0 0 .67 1.75c.448.503 1.054.917 1.817 1.24s1.643.62 2.634.896 1.683.566 2.78.872l3.292.914a16.49 16.49 0 0 1 3.16 1.244c1.006.527 1.895 1.133 2.67 1.822s1.385 1.56 1.84 2.62.52 2.226.52 3.572c0 1.423-.105 2.778-.63 4.003s-1.313 2.322-2.355 3.284c-1.045.968-2.076 1.723-3.804 2.27s-3.78.872-6.017.872c-5.845 0-10.38-2.25-13.775-5.794l3.162-4.493zM99.756 13.4V8.64h4.08V1.518h5.513V8.64h4.088v4.75h-4.088v13.46c0 .887.363 1.82.785 2.373s1.17.614 1.93.614a3.89 3.89 0 0 0 1.423-.267c.455-.18.794-.387 1.014-.63l1.295 4.14c-1.133 1.1-2.966 1.686-5.268 1.686-2.098 0-3.818-.848-4.918-1.966s-1.774-3.06-1.774-5.157V13.4h-4.08zm42.62 21.375V8.653h5.585v3.956c1.374-1.2 2.522-2 4.032-2.784a10.15 10.15 0 0 1 4.743-1.172v5.313c-.48-.1-1.083-.15-1.813-.15-1.207 0-2.494.328-3.86.985s-2.534 1.694-3.1 2.557v17.408h-5.585zm-18.6-5.002c1 .803 2.25 1.204 3.776 1.204 1.215 0 2.344-.22 3.4-.656s1.87-1.065 2.47-1.875l-.028-3.953c-.597-.8-1.395-1.204-2.442-1.64s-2.176-.66-3.4-.66c-1.527 0-2.785.403-3.776 1.207-.985.8-1.48 1.872-1.48 3.2 0 1.305.496 2.36 1.48 3.162zm-6.922-3.306c0-1.372.378-2.553.88-3.612s1.167-1.906 1.996-2.532a9.13 9.13 0 0 1 2.71-1.415 9.7 9.7 0 0 1 3.02-.479c1.5 0 2.858.14 4.047.474 1.547.436 2.825 1.2 3.845 2.42V18.15c0-1.4-.5-2.667-1.55-3.486s-2.435-1.23-4.156-1.23c-2.736 0-4.77.322-6.862 2.342l-2.356-3.164c2.782-2.676 6.143-3.956 10.2-3.956 1.42 0 2.6.3 3.78.626s2.255.823 3.212 1.498 1.713 1.602 2.258 2.793.966 2.2.966 3.787v17.408h-5.5V31.6c-.926 1.068-2.045 1.67-3.4 2.243a11.25 11.25 0 0 1-4.446.924c-1.02 0-2.057-.233-3.04-.583s-1.895-.856-2.724-1.516-1.493-1.525-1.996-2.593-.88-2.296-.88-3.615zm-74.702 8.307c-7.256 0-13.138-5.845-13.138-13.056S34.907 8.653 42.163 8.653 55.3 14.498 55.3 21.7s-5.88 13.054-13.137 13.054zm.077-5.07c4.396 0 7.96-3.576 7.96-7.987a7.97 7.97 0 0 0-2.037-5.336c-1.457-1.628-3.57-2.65-5.923-2.65-4.396 0-7.96 3.576-7.96 7.987a7.98 7.98 0 0 0 2.882 6.151c1.76 1.465 3.148 1.836 5.078 1.836z"/></g></g><circle fill="url(#B)" cx="32.187" cy="32.187" r="32.187"/><path d="M28.022 50.885c-2.963 1.688-6.302 2.82-8.92 1.623 2.47-1.216 2.935-2.595 3.178-3.744l.036-.18c-.828-.53-1.676-1.157-2.562-1.897a19.79 19.79 0 0 1-7.104-15.226c0-10.92 8.782-19.77 19.617-19.77 5.797 0 11.007 2.534 14.598 6.562 3.12 3.5 5.02 8.13 5.02 13.207 0 10.92-8.782 19.77-19.617 19.77-1.528 0-2.92-.095-4.246-.344z" fill="#fefefe"/><path d="M23.127 39.06c3.03 2.03 6.116 3.056 9.242 3.056s6.243-1.023 9.35-3.05c.4-.268.52-.808.245-1.208a.91.91 0 0 0-1.241-.239c-2.826 1.843-5.607 2.755-8.355 2.755s-5.483-.9-8.228-2.75a.91.91 0 0 0-1.244.224c-.28.396-.177.938.23 1.21z" fill="#7962c2" fill-rule="nonzero"/></g></svg>
